<svg width="504" height="48" viewBox="0 0 504 48" fill="none" xmlns="http://www.w3.org/2000/svg">
<g filter="url(#filter0_d_1531_30638)">
<path d="M123 3V2H122H12C7.02944 2 3 6.02944 3 11V35C3 39.9706 7.02943 44 12 44H122H123V43V3Z" fill="url(#paint0_linear_1531_30638)"/>
<path d="M35.8337 22.9993H24.167M24.167 22.9993L30.0003 28.8327M24.167 22.9993L30.0003 17.166" stroke="#0B77F0" stroke-width="1.67" stroke-linecap="round" stroke-linejoin="round"/>
<path d="M49.1186 28V17.8182H52.7479C53.54 17.8182 54.1963 17.9624 54.7166 18.2507C55.237 18.5391 55.6264 18.9335 55.8849 19.4339C56.1435 19.9311 56.2727 20.4912 56.2727 21.1143C56.2727 21.7408 56.1418 22.3042 55.88 22.8047C55.6214 23.3018 55.2304 23.6963 54.7067 23.9879C54.1863 24.2763 53.5317 24.4205 52.7429 24.4205H50.2472V23.1179H52.6037C53.1042 23.1179 53.5102 23.0317 53.8217 22.8594C54.1333 22.6837 54.362 22.4451 54.5078 22.1435C54.6536 21.8419 54.7266 21.4988 54.7266 21.1143C54.7266 20.7299 54.6536 20.3885 54.5078 20.0902C54.362 19.7919 54.1316 19.5582 53.8168 19.3892C53.5052 19.2202 53.0942 19.1357 52.5838 19.1357H50.6548V28H49.1186ZM57.9544 28V20.3636H59.3912V21.5767H59.4707C59.6099 21.1657 59.8552 20.8426 60.2065 20.6072C60.5611 20.3686 60.9622 20.2493 61.4096 20.2493C61.5024 20.2493 61.6118 20.2526 61.7377 20.2592C61.867 20.2659 61.9681 20.2741 62.041 20.2841V21.706C61.9814 21.6894 61.8753 21.6712 61.7228 21.6513C61.5704 21.6281 61.4179 21.6165 61.2654 21.6165C60.9141 21.6165 60.6009 21.6911 60.3258 21.8402C60.054 21.986 59.8386 22.1899 59.6795 22.4517C59.5204 22.7102 59.4409 23.0052 59.4409 23.3366V28H57.9544ZM66.3452 28.1541C65.5928 28.1541 64.9448 27.9934 64.4013 27.6719C63.861 27.3471 63.4434 26.8913 63.1484 26.3047C62.8568 25.7147 62.7109 25.0237 62.7109 24.2315C62.7109 23.4493 62.8568 22.7599 63.1484 22.1634C63.4434 21.5668 63.8544 21.1011 64.3814 20.7663C64.9117 20.4316 65.5315 20.2642 66.2408 20.2642C66.6716 20.2642 67.0893 20.3355 67.4936 20.478C67.898 20.6205 68.2609 20.8442 68.5824 21.1491C68.9039 21.4541 69.1574 21.8501 69.343 22.3374C69.5286 22.8213 69.6214 23.4096 69.6214 24.1023V24.6293H63.5511V23.5156H68.1648C68.1648 23.1245 68.0852 22.7782 67.9261 22.4766C67.767 22.1716 67.5433 21.9313 67.255 21.7557C66.9699 21.58 66.6352 21.4922 66.2507 21.4922C65.8331 21.4922 65.4685 21.5949 65.157 21.8004C64.8487 22.0026 64.6101 22.2678 64.4411 22.5959C64.2753 22.9207 64.1925 23.2737 64.1925 23.6548V24.5249C64.1925 25.0353 64.282 25.4695 64.4609 25.8274C64.6432 26.1854 64.8968 26.4588 65.2216 26.6477C65.5464 26.8333 65.9259 26.9261 66.3601 26.9261C66.6418 26.9261 66.8987 26.8864 67.1307 26.8068C67.3627 26.724 67.5632 26.6013 67.7322 26.4389C67.9013 26.2765 68.0305 26.076 68.12 25.8374L69.527 26.0909C69.4143 26.5052 69.2121 26.8681 68.9205 27.1797C68.6321 27.4879 68.2692 27.7282 67.8317 27.9006C67.3975 28.0696 66.902 28.1541 66.3452 28.1541ZM77.5847 20.3636L74.8155 28H73.2246L70.4505 20.3636H72.0463L73.9803 26.2401H74.0598L75.9888 20.3636H77.5847ZM78.9817 28V20.3636H80.4682V28H78.9817ZM79.7324 19.1854C79.4739 19.1854 79.2518 19.0992 79.0662 18.9268C78.8839 18.7512 78.7928 18.5424 78.7928 18.3004C78.7928 18.0552 78.8839 17.8464 79.0662 17.674C79.2518 17.4983 79.4739 17.4105 79.7324 17.4105C79.9909 17.4105 80.2114 17.4983 80.3936 17.674C80.5792 17.8464 80.6721 18.0552 80.6721 18.3004C80.6721 18.5424 80.5792 18.7512 80.3936 18.9268C80.2114 19.0992 79.9909 19.1854 79.7324 19.1854ZM85.6847 28.1541C84.9688 28.1541 84.344 27.9901 83.8104 27.6619C83.2768 27.3338 82.8625 26.8748 82.5675 26.2848C82.2725 25.6948 82.125 25.0054 82.125 24.2166C82.125 23.4245 82.2725 22.7318 82.5675 22.1385C82.8625 21.5452 83.2768 21.0845 83.8104 20.7564C84.344 20.4283 84.9688 20.2642 85.6847 20.2642C86.4006 20.2642 87.0253 20.4283 87.5589 20.7564C88.0926 21.0845 88.5069 21.5452 88.8018 22.1385C89.0968 22.7318 89.2443 23.4245 89.2443 24.2166C89.2443 25.0054 89.0968 25.6948 88.8018 26.2848C88.5069 26.8748 88.0926 27.3338 87.5589 27.6619C87.0253 27.9901 86.4006 28.1541 85.6847 28.1541ZM85.6896 26.9062C86.1536 26.9062 86.5381 26.7836 86.843 26.5384C87.148 26.2931 87.3733 25.9666 87.5192 25.5589C87.6683 25.1513 87.7429 24.7022 87.7429 24.2116C87.7429 23.7244 87.6683 23.277 87.5192 22.8693C87.3733 22.4583 87.148 22.1286 86.843 21.88C86.5381 21.6314 86.1536 21.5071 85.6896 21.5071C85.2223 21.5071 84.8345 21.6314 84.5263 21.88C84.2214 22.1286 83.9943 22.4583 83.8452 22.8693C83.6993 23.277 83.6264 23.7244 83.6264 24.2116C83.6264 24.7022 83.6993 25.1513 83.8452 25.5589C83.9943 25.9666 84.2214 26.2931 84.5263 26.5384C84.8345 26.7836 85.2223 26.9062 85.6896 26.9062ZM95.7409 24.8331V20.3636H97.2324V28H95.7708V26.6776H95.6912C95.5156 27.0852 95.2338 27.425 94.8461 27.6967C94.4616 27.9652 93.9827 28.0994 93.4093 28.0994C92.9187 28.0994 92.4846 27.9917 92.1067 27.7763C91.7322 27.5575 91.4372 27.2344 91.2218 26.8068C91.0096 26.3793 90.9036 25.8506 90.9036 25.2209V20.3636H92.3901V25.0419C92.3901 25.5623 92.5343 25.9766 92.8226 26.2848C93.111 26.593 93.4855 26.7472 93.9462 26.7472C94.2246 26.7472 94.5014 26.6776 94.7765 26.5384C95.0549 26.3991 95.2852 26.1887 95.4675 25.907C95.6531 25.6252 95.7443 25.2673 95.7409 24.8331ZM104.952 22.228L103.605 22.4666C103.548 22.2943 103.459 22.1302 103.336 21.9744C103.217 21.8187 103.055 21.6911 102.849 21.5916C102.644 21.4922 102.387 21.4425 102.078 21.4425C101.658 21.4425 101.306 21.5369 101.025 21.7259C100.743 21.9115 100.602 22.1518 100.602 22.4467C100.602 22.7019 100.696 22.9074 100.885 23.0632C101.074 23.219 101.379 23.3466 101.8 23.446L103.013 23.7244C103.716 23.8868 104.239 24.1371 104.584 24.4751C104.929 24.8132 105.101 25.2524 105.101 25.7926C105.101 26.25 104.969 26.6577 104.703 27.0156C104.442 27.3703 104.075 27.6487 103.605 27.8509C103.137 28.053 102.596 28.1541 101.979 28.1541C101.124 28.1541 100.426 27.9718 99.886 27.6072C99.3458 27.2393 99.0143 26.7173 98.8917 26.0412L100.328 25.8224C100.418 26.197 100.602 26.4804 100.88 26.6726C101.159 26.8615 101.522 26.956 101.969 26.956C102.456 26.956 102.846 26.8549 103.137 26.6527C103.429 26.4472 103.575 26.197 103.575 25.902C103.575 25.6634 103.485 25.4628 103.306 25.3004C103.131 25.138 102.861 25.0154 102.496 24.9325L101.203 24.6491C100.491 24.4867 99.9639 24.2282 99.6225 23.8736C99.2844 23.5189 99.1154 23.0698 99.1154 22.5263C99.1154 22.0755 99.2414 21.6811 99.4933 21.343C99.7451 21.005 100.093 20.7415 100.537 20.5526C100.981 20.3603 101.49 20.2642 102.064 20.2642C102.889 20.2642 103.538 20.4432 104.012 20.8011C104.486 21.1558 104.8 21.6314 104.952 22.228Z" fill="#0B77F0"/>
<path d="M123 3V2H122H12C7.02944 2 3 6.02944 3 11V35C3 39.9706 7.02943 44 12 44H122H123V43V3Z" stroke="url(#paint1_linear_1531_30638)" stroke-width="2"/>
<path d="M122 2H121V3V43V44H122H162H163V43V3V2H162H122Z" fill="white"/>
<rect x="122" y="3" width="40" height="1" fill="url(#paint2_linear_1531_30638)"/>
<path d="M143.342 17.8182V28H141.801V19.3594H141.741L139.305 20.9503V19.4787L141.846 17.8182H143.342Z" fill="#0B77F0"/>
<rect x="122" y="42" width="40" height="1" fill="url(#paint3_linear_1531_30638)"/>
<path d="M122 2H121V3V43V44H122H162H163V43V3V2H162H122Z" stroke="url(#paint4_linear_1531_30638)" stroke-width="2"/>
<path d="M162 2H161V3V43V44H162H163H164V43V3V2H163H162Z" fill="url(#paint5_linear_1531_30638)" stroke="url(#paint6_linear_1531_30638)" stroke-width="2"/>
<path d="M163 2H162V3V43V44H163H203H204V43V3V2H203H163Z" fill="url(#paint7_linear_1531_30638)"/>
<rect x="163" y="3" width="40" height="1" fill="url(#paint8_linear_1531_30638)"/>
<path d="M179.479 28V26.8864L182.925 23.3168C183.293 22.929 183.596 22.5893 183.835 22.2976C184.076 22.0026 184.257 21.7225 184.376 21.4574C184.496 21.1922 184.555 20.9105 184.555 20.6122C184.555 20.2741 184.476 19.9825 184.317 19.7372C184.158 19.4886 183.941 19.2981 183.665 19.1655C183.39 19.0296 183.08 18.9616 182.736 18.9616C182.371 18.9616 182.053 19.0362 181.781 19.1854C181.509 19.3345 181.301 19.545 181.155 19.8168C181.009 20.0885 180.936 20.4067 180.936 20.7713H179.469C179.469 20.1515 179.612 19.6096 179.897 19.1456C180.182 18.6816 180.573 18.322 181.07 18.0668C181.567 17.8082 182.133 17.679 182.766 17.679C183.405 17.679 183.969 17.8066 184.456 18.0618C184.946 18.3137 185.329 18.6584 185.604 19.0959C185.879 19.5301 186.017 20.0206 186.017 20.5675C186.017 20.9453 185.946 21.3149 185.803 21.6761C185.664 22.0374 185.42 22.4401 185.072 22.8842C184.724 23.325 184.241 23.8603 183.621 24.4901L181.597 26.608V26.6825H186.181V28H179.479Z" fill="#0B77F0"/>
<rect x="163" y="42" width="40" height="1" fill="url(#paint9_linear_1531_30638)"/>
<path d="M163 2H162V3V43V44H163H203H204V43V3V2H203H163Z" stroke="url(#paint10_linear_1531_30638)" stroke-width="2"/>
<path d="M203 2H202V3V43V44H203H204H205V43V3V2H204H203Z" fill="url(#paint11_linear_1531_30638)" stroke="url(#paint12_linear_1531_30638)" stroke-width="2"/>
<path d="M204 2H203V3V43V44H204H244H245V43V3V2H244H204Z" fill="url(#paint13_linear_1531_30638)"/>
<rect x="204" y="3" width="40" height="1" fill="url(#paint14_linear_1531_30638)"/>
<path d="M223.524 28.1392C222.841 28.1392 222.232 28.0215 221.695 27.7862C221.161 27.5509 220.738 27.2244 220.427 26.8068C220.119 26.3859 219.953 25.8987 219.93 25.3452H221.491C221.511 25.6468 221.612 25.9086 221.794 26.1307C221.98 26.3494 222.222 26.5185 222.52 26.6378C222.818 26.7571 223.15 26.8168 223.514 26.8168C223.915 26.8168 224.27 26.7472 224.578 26.608C224.89 26.4687 225.133 26.2749 225.309 26.0263C225.485 25.7744 225.572 25.4844 225.572 25.1562C225.572 24.8149 225.485 24.5149 225.309 24.2564C225.137 23.9946 224.883 23.7891 224.548 23.6399C224.217 23.4908 223.816 23.4162 223.345 23.4162H222.485V22.1634H223.345C223.723 22.1634 224.054 22.0954 224.339 21.9595C224.628 21.8236 224.853 21.6347 225.016 21.3928C225.178 21.1475 225.259 20.8608 225.259 20.5327C225.259 20.2178 225.188 19.9444 225.045 19.7124C224.906 19.477 224.707 19.2931 224.449 19.1605C224.194 19.0279 223.892 18.9616 223.544 18.9616C223.213 18.9616 222.903 19.023 222.614 19.1456C222.329 19.2649 222.097 19.4373 221.918 19.6626C221.739 19.8847 221.643 20.1515 221.63 20.4631H220.143C220.16 19.9129 220.322 19.429 220.631 19.0114C220.942 18.5937 221.353 18.2673 221.864 18.032C222.374 17.7966 222.941 17.679 223.564 17.679C224.217 17.679 224.78 17.8066 225.254 18.0618C225.732 18.3137 226.099 18.6501 226.358 19.071C226.62 19.492 226.749 19.9527 226.746 20.4531C226.749 21.0232 226.59 21.5071 226.268 21.9048C225.95 22.3026 225.526 22.5694 224.996 22.7053V22.7848C225.672 22.8875 226.196 23.156 226.567 23.5902C226.941 24.0244 227.127 24.563 227.124 25.206C227.127 25.7661 226.971 26.2682 226.656 26.7124C226.345 27.1565 225.919 27.5062 225.379 27.7614C224.838 28.0133 224.22 28.1392 223.524 28.1392Z" fill="#0B77F0"/>
<rect x="204" y="42" width="40" height="1" fill="url(#paint15_linear_1531_30638)"/>
<path d="M204 2H203V3V43V44H204H244H245V43V3V2H244H204Z" stroke="url(#paint16_linear_1531_30638)" stroke-width="2"/>
<path d="M244 2H243V3V43V44H244H245H246V43V3V2H245H244Z" fill="url(#paint17_linear_1531_30638)" stroke="url(#paint18_linear_1531_30638)" stroke-width="2"/>
<path d="M245 2H244V3V43V44H245H285H286V43V3V2H285H245Z" fill="url(#paint19_linear_1531_30638)"/>
<rect x="245" y="3" width="40" height="1" fill="url(#paint20_linear_1531_30638)"/>
<path d="M260.979 28.0945C260.707 28.0945 260.473 27.9983 260.278 27.8061C260.082 27.6106 259.984 27.3752 259.984 27.1001C259.984 26.8284 260.082 26.5964 260.278 26.4041C260.473 26.2086 260.707 26.1108 260.979 26.1108C261.25 26.1108 261.484 26.2086 261.68 26.4041C261.875 26.5964 261.973 26.8284 261.973 27.1001C261.973 27.2824 261.927 27.4498 261.834 27.6023C261.744 27.7514 261.625 27.8707 261.476 27.9602C261.327 28.0497 261.161 28.0945 260.979 28.0945ZM264.944 28.0945C264.672 28.0945 264.438 27.9983 264.243 27.8061C264.047 27.6106 263.949 27.3752 263.949 27.1001C263.949 26.8284 264.047 26.5964 264.243 26.4041C264.438 26.2086 264.672 26.1108 264.944 26.1108C265.215 26.1108 265.449 26.2086 265.645 26.4041C265.84 26.5964 265.938 26.8284 265.938 27.1001C265.938 27.2824 265.891 27.4498 265.799 27.6023C265.709 27.7514 265.59 27.8707 265.441 27.9602C265.292 28.0497 265.126 28.0945 264.944 28.0945ZM268.908 28.0945C268.637 28.0945 268.403 27.9983 268.207 27.8061C268.012 27.6106 267.914 27.3752 267.914 27.1001C267.914 26.8284 268.012 26.5964 268.207 26.4041C268.403 26.2086 268.637 26.1108 268.908 26.1108C269.18 26.1108 269.414 26.2086 269.609 26.4041C269.805 26.5964 269.903 26.8284 269.903 27.1001C269.903 27.2824 269.856 27.4498 269.763 27.6023C269.674 27.7514 269.555 27.8707 269.406 27.9602C269.256 28.0497 269.091 28.0945 268.908 28.0945Z" fill="#0B77F0"/>
<rect x="245" y="42" width="40" height="1" fill="url(#paint21_linear_1531_30638)"/>
<path d="M245 2H244V3V43V44H245H285H286V43V3V2H285H245Z" stroke="url(#paint22_linear_1531_30638)" stroke-width="2"/>
<path d="M285 2H284V3V43V44H285H286H287V43V3V2H286H285Z" fill="url(#paint23_linear_1531_30638)" stroke="url(#paint24_linear_1531_30638)" stroke-width="2"/>
<path d="M286 2H285V3V43V44H286H326H327V43V3V2H326H286Z" fill="url(#paint25_linear_1531_30638)"/>
<rect x="286" y="3" width="40" height="1" fill="url(#paint26_linear_1531_30638)"/>
<path d="M305.92 28.1392C305.207 28.1392 304.577 28.0166 304.031 27.7713C303.487 27.526 303.061 27.188 302.753 26.7571C302.445 26.3262 302.292 25.8357 302.295 25.2855C302.292 24.8546 302.38 24.4586 302.559 24.0973C302.741 23.7327 302.988 23.4295 303.3 23.1875C303.611 22.9422 303.959 22.7865 304.344 22.7202V22.6605C303.837 22.5379 303.431 22.2661 303.126 21.8452C302.821 21.4242 302.67 20.9403 302.673 20.3935C302.67 19.8731 302.808 19.4091 303.086 19.0014C303.368 18.5904 303.754 18.2673 304.244 18.032C304.735 17.7966 305.293 17.679 305.92 17.679C306.54 17.679 307.093 17.7983 307.58 18.0369C308.071 18.2723 308.457 18.5954 308.739 19.0064C309.02 19.4141 309.163 19.8764 309.166 20.3935C309.163 20.9403 309.007 21.4242 308.699 21.8452C308.391 22.2661 307.99 22.5379 307.496 22.6605V22.7202C307.877 22.7865 308.22 22.9422 308.525 23.1875C308.833 23.4295 309.078 23.7327 309.261 24.0973C309.446 24.4586 309.541 24.8546 309.544 25.2855C309.541 25.8357 309.385 26.3262 309.077 26.7571C308.768 27.188 308.341 27.526 307.794 27.7713C307.25 28.0166 306.626 28.1392 305.92 28.1392ZM305.92 26.8814C306.341 26.8814 306.705 26.8118 307.013 26.6726C307.322 26.5301 307.56 26.3329 307.729 26.081C307.898 25.8258 307.985 25.5275 307.988 25.1861C307.985 24.8314 307.892 24.5182 307.71 24.2464C307.531 23.9747 307.287 23.7609 306.979 23.6051C306.67 23.4493 306.317 23.3714 305.92 23.3714C305.519 23.3714 305.162 23.4493 304.851 23.6051C304.539 23.7609 304.294 23.9747 304.115 24.2464C303.936 24.5182 303.848 24.8314 303.852 25.1861C303.848 25.5275 303.929 25.8258 304.095 26.081C304.264 26.3329 304.504 26.5301 304.816 26.6726C305.128 26.8118 305.496 26.8814 305.92 26.8814ZM305.92 22.1435C306.258 22.1435 306.558 22.0755 306.82 21.9396C307.081 21.8037 307.287 21.6148 307.436 21.3729C307.589 21.1309 307.666 20.8475 307.67 20.5227C307.666 20.2045 307.59 19.9261 307.441 19.6875C307.295 19.4489 307.091 19.2649 306.83 19.1357C306.568 19.0031 306.264 18.9368 305.92 18.9368C305.568 18.9368 305.26 19.0031 304.995 19.1357C304.733 19.2649 304.529 19.4489 304.384 19.6875C304.238 19.9261 304.166 20.2045 304.17 20.5227C304.166 20.8475 304.239 21.1309 304.388 21.3729C304.538 21.6148 304.743 21.8037 305.005 21.9396C305.27 22.0755 305.575 22.1435 305.92 22.1435Z" fill="#0B77F0"/>
<rect x="286" y="42" width="40" height="1" fill="url(#paint27_linear_1531_30638)"/>
<path d="M286 2H285V3V43V44H286H326H327V43V3V2H326H286Z" stroke="url(#paint28_linear_1531_30638)" stroke-width="2"/>
<path d="M326 2H325V3V43V44H326H327H328V43V3V2H327H326Z" fill="url(#paint29_linear_1531_30638)" stroke="url(#paint30_linear_1531_30638)" stroke-width="2"/>
<path d="M327 2H326V3V43V44H327H367H368V43V3V2H367H327Z" fill="url(#paint31_linear_1531_30638)"/>
<rect x="327" y="3" width="40" height="1" fill="url(#paint32_linear_1531_30638)"/>
<path d="M346.865 17.679C347.319 17.6823 347.767 17.7652 348.207 17.9276C348.648 18.09 349.046 18.3551 349.401 18.723C349.759 19.0909 350.044 19.5881 350.256 20.2145C350.471 20.8376 350.58 21.6132 350.584 22.5412C350.584 23.4328 350.494 24.2266 350.315 24.9226C350.136 25.6153 349.879 26.2003 349.545 26.6776C349.213 27.1548 348.811 27.5178 348.337 27.7663C347.863 28.0149 347.329 28.1392 346.736 28.1392C346.129 28.1392 345.591 28.0199 345.12 27.7812C344.649 27.5426 344.267 27.2128 343.972 26.7919C343.677 26.3677 343.493 25.8804 343.42 25.3303H344.936C345.036 25.7678 345.238 26.1224 345.543 26.3942C345.851 26.6626 346.249 26.7969 346.736 26.7969C347.482 26.7969 348.063 26.4721 348.481 25.8224C348.898 25.1695 349.109 24.258 349.112 23.0881H349.033C348.86 23.3731 348.645 23.6184 348.386 23.8239C348.131 24.0294 347.844 24.1884 347.526 24.3011C347.208 24.4138 346.868 24.4702 346.507 24.4702C345.92 24.4702 345.387 24.326 344.906 24.0376C344.426 23.7493 344.043 23.3532 343.758 22.8494C343.473 22.3456 343.33 21.7706 343.33 21.1243C343.33 20.4813 343.476 19.898 343.768 19.3743C344.063 18.8506 344.474 18.4363 345.001 18.1314C345.531 17.8232 346.152 17.6723 346.865 17.679ZM346.87 18.9716C346.482 18.9716 346.133 19.0677 345.821 19.2599C345.513 19.4489 345.269 19.7057 345.09 20.0305C344.911 20.352 344.822 20.71 344.822 21.1044C344.822 21.4988 344.908 21.8568 345.08 22.1783C345.256 22.4964 345.495 22.75 345.796 22.9389C346.101 23.1245 346.449 23.2173 346.84 23.2173C347.132 23.2173 347.404 23.161 347.656 23.0483C347.907 22.9356 348.128 22.7798 348.317 22.581C348.506 22.3788 348.653 22.1501 348.759 21.8949C348.865 21.6397 348.918 21.3712 348.918 21.0895C348.918 20.715 348.829 20.367 348.65 20.0455C348.474 19.724 348.232 19.4654 347.924 19.2699C347.616 19.071 347.264 18.9716 346.87 18.9716Z" fill="#0B77F0"/>
<rect x="327" y="42" width="40" height="1" fill="url(#paint33_linear_1531_30638)"/>
<path d="M327 2H326V3V43V44H327H367H368V43V3V2H367H327Z" stroke="url(#paint34_linear_1531_30638)" stroke-width="2"/>
<path d="M367 2H366V3V43V44H367H368H369V43V3V2H368H367Z" fill="url(#paint35_linear_1531_30638)" stroke="url(#paint36_linear_1531_30638)" stroke-width="2"/>
<path d="M368 2H367V3V43V44H368H408H409V43V3V2H408H368Z" fill="url(#paint37_linear_1531_30638)"/>
<rect x="368" y="3" width="40" height="1" fill="url(#paint38_linear_1531_30638)"/>
<path d="M384.842 17.8182V28H383.301V19.3594H383.241L380.805 20.9503V19.4787L383.346 17.8182H384.842ZM391.141 28.169C390.356 28.1657 389.685 27.9586 389.128 27.5476C388.571 27.1366 388.145 26.5384 387.85 25.7528C387.555 24.9673 387.408 24.0211 387.408 22.9141C387.408 21.8104 387.555 20.8674 387.85 20.0852C388.148 19.303 388.576 18.7064 389.133 18.2955C389.693 17.8845 390.362 17.679 391.141 17.679C391.92 17.679 392.588 17.8861 393.145 18.3004C393.702 18.7114 394.128 19.308 394.423 20.0902C394.721 20.8691 394.87 21.8104 394.87 22.9141C394.87 24.0244 394.723 24.9723 394.428 25.7578C394.133 26.54 393.707 27.1383 393.15 27.5526C392.593 27.9635 391.924 28.169 391.141 28.169ZM391.141 26.8416C391.831 26.8416 392.369 26.5052 392.757 25.8324C393.148 25.1596 393.344 24.1868 393.344 22.9141C393.344 22.0689 393.254 21.3546 393.075 20.7713C392.9 20.1847 392.646 19.7405 392.315 19.4389C391.987 19.134 391.595 18.9815 391.141 18.9815C390.455 18.9815 389.917 19.3196 389.526 19.9957C389.134 20.6719 388.937 21.6446 388.934 22.9141C388.934 23.7625 389.022 24.4801 389.197 25.0668C389.376 25.6501 389.63 26.0926 389.958 26.3942C390.286 26.6925 390.681 26.8416 391.141 26.8416Z" fill="#0B77F0"/>
<rect x="368" y="42" width="40" height="1" fill="url(#paint39_linear_1531_30638)"/>
<path d="M368 2H367V3V43V44H368H408H409V43V3V2H408H368Z" stroke="url(#paint40_linear_1531_30638)" stroke-width="2"/>
<path d="M408 2H407V3V43V44H408H492C496.971 44 501 39.9706 501 35V11C501 6.02944 496.971 2 492 2H408Z" fill="url(#paint41_linear_1531_30638)"/>
<path d="M433.337 17.8182V28H431.925L426.749 20.5327H426.655V28H425.119V17.8182H426.54L431.721 25.2955H431.815V17.8182H433.337ZM438.749 28.1541C437.997 28.1541 437.349 27.9934 436.806 27.6719C436.265 27.3471 435.848 26.8913 435.553 26.3047C435.261 25.7147 435.115 25.0237 435.115 24.2315C435.115 23.4493 435.261 22.7599 435.553 22.1634C435.848 21.5668 436.259 21.1011 436.786 20.7663C437.316 20.4316 437.936 20.2642 438.645 20.2642C439.076 20.2642 439.494 20.3355 439.898 20.478C440.302 20.6205 440.665 20.8442 440.987 21.1491C441.308 21.4541 441.562 21.8501 441.747 22.3374C441.933 22.8213 442.026 23.4096 442.026 24.1023V24.6293H435.955V23.5156H440.569C440.569 23.1245 440.49 22.7782 440.33 22.4766C440.171 22.1716 439.948 21.9313 439.659 21.7557C439.374 21.58 439.039 21.4922 438.655 21.4922C438.237 21.4922 437.873 21.5949 437.561 21.8004C437.253 22.0026 437.014 22.2678 436.845 22.5959C436.68 22.9207 436.597 23.2737 436.597 23.6548V24.5249C436.597 25.0353 436.686 25.4695 436.865 25.8274C437.048 26.1854 437.301 26.4588 437.626 26.6477C437.951 26.8333 438.33 26.9261 438.764 26.9261C439.046 26.9261 439.303 26.8864 439.535 26.8068C439.767 26.724 439.968 26.6013 440.137 26.4389C440.306 26.2765 440.435 26.076 440.524 25.8374L441.931 26.0909C441.819 26.5052 441.616 26.8681 441.325 27.1797C441.036 27.4879 440.673 27.7282 440.236 27.9006C439.802 28.0696 439.306 28.1541 438.749 28.1541ZM444.671 20.3636L446.356 23.3366L448.056 20.3636H449.682L447.301 24.1818L449.702 28H448.076L446.356 25.1463L444.641 28H443.01L445.387 24.1818L443.04 20.3636H444.671ZM454.773 20.3636V21.5568H450.602V20.3636H454.773ZM451.72 18.5341H453.207V25.7578C453.207 26.0462 453.25 26.2633 453.336 26.4091C453.422 26.5516 453.533 26.6494 453.669 26.7024C453.808 26.7521 453.959 26.777 454.122 26.777C454.241 26.777 454.345 26.7687 454.435 26.7521C454.524 26.7356 454.594 26.7223 454.644 26.7124L454.912 27.9403C454.826 27.9735 454.703 28.0066 454.544 28.0398C454.385 28.0762 454.186 28.0961 453.948 28.0994C453.557 28.1061 453.192 28.0365 452.854 27.8906C452.516 27.7448 452.242 27.5194 452.034 27.2145C451.825 26.9096 451.72 26.5268 451.72 26.0661V18.5341Z" fill="#0B77F0"/>
<path d="M468.167 22.9993H479.834M479.834 22.9993L474 17.166M479.834 22.9993L474 28.8327" stroke="#0B77F0" stroke-width="1.67" stroke-linecap="round" stroke-linejoin="round"/>
<path d="M408 2H407V3V43V44H408H492C496.971 44 501 39.9706 501 35V11C501 6.02944 496.971 2 492 2H408Z" stroke="url(#paint42_linear_1531_30638)" stroke-width="2"/>
</g>
<defs>
<filter id="filter0_d_1531_30638" x="0" y="0" width="504" height="48" filterUnits="userSpaceOnUse" color-interpolation-filters="sRGB">
<feFlood flood-opacity="0" result="BackgroundImageFix"/>
<feColorMatrix in="SourceAlpha" type="matrix" values="0 0 0 0 0 0 0 0 0 0 0 0 0 0 0 0 0 0 127 0" result="hardAlpha"/>
<feOffset dy="1"/>
<feGaussianBlur stdDeviation="1"/>
<feColorMatrix type="matrix" values="0 0 0 0 0.0627451 0 0 0 0 0.0941176 0 0 0 0 0.156863 0 0 0 0.05 0"/>
<feBlend mode="normal" in2="BackgroundImageFix" result="effect1_dropShadow_1531_30638"/>
<feBlend mode="normal" in="SourceGraphic" in2="effect1_dropShadow_1531_30638" result="shape"/>
</filter>
<linearGradient id="paint0_linear_1531_30638" x1="15.1547" y1="42.9999" x2="122.621" y2="40.9775" gradientUnits="userSpaceOnUse">
<stop stop-color="#010C18" stop-opacity="0.8"/>
<stop offset="1" stop-color="#010C18" stop-opacity="0.45"/>
</linearGradient>
<linearGradient id="paint1_linear_1531_30638" x1="12.9156" y1="11.3019" x2="124.203" y2="26.7312" gradientUnits="userSpaceOnUse">
<stop stop-color="#032449"/>
<stop offset="1" stop-color="#0B77F0"/>
</linearGradient>
<linearGradient id="paint2_linear_1531_30638" x1="125.022" y1="3.20755" x2="133.502" y2="19.1496" gradientUnits="userSpaceOnUse">
<stop stop-color="#032449"/>
<stop offset="1" stop-color="#0B77F0"/>
</linearGradient>
<linearGradient id="paint3_linear_1531_30638" x1="125.022" y1="42.2075" x2="133.502" y2="58.1496" gradientUnits="userSpaceOnUse">
<stop stop-color="#032449"/>
<stop offset="1" stop-color="#0B77F0"/>
</linearGradient>
<linearGradient id="paint4_linear_1531_30638" x1="125.022" y1="11.3019" x2="163.387" y2="13.105" gradientUnits="userSpaceOnUse">
<stop stop-color="#032449"/>
<stop offset="1" stop-color="#0B77F0"/>
</linearGradient>
<linearGradient id="paint5_linear_1531_30638" x1="162.076" y1="11.3019" x2="163.037" y2="11.303" gradientUnits="userSpaceOnUse">
<stop stop-color="#032449"/>
<stop offset="1" stop-color="#0B77F0"/>
</linearGradient>
<linearGradient id="paint6_linear_1531_30638" x1="162.076" y1="11.3019" x2="163.037" y2="11.303" gradientUnits="userSpaceOnUse">
<stop stop-color="#032449"/>
<stop offset="1" stop-color="#0B77F0"/>
</linearGradient>
<linearGradient id="paint7_linear_1531_30638" x1="166.781" y1="42.9999" x2="203.222" y2="42.7675" gradientUnits="userSpaceOnUse">
<stop stop-color="#010C18" stop-opacity="0.8"/>
<stop offset="1" stop-color="#010C18" stop-opacity="0.45"/>
</linearGradient>
<linearGradient id="paint8_linear_1531_30638" x1="166.022" y1="3.20755" x2="174.502" y2="19.1496" gradientUnits="userSpaceOnUse">
<stop stop-color="#032449"/>
<stop offset="1" stop-color="#0B77F0"/>
</linearGradient>
<linearGradient id="paint9_linear_1531_30638" x1="166.022" y1="42.2075" x2="174.502" y2="58.1496" gradientUnits="userSpaceOnUse">
<stop stop-color="#032449"/>
<stop offset="1" stop-color="#0B77F0"/>
</linearGradient>
<linearGradient id="paint10_linear_1531_30638" x1="166.022" y1="11.3019" x2="204.387" y2="13.105" gradientUnits="userSpaceOnUse">
<stop stop-color="#032449"/>
<stop offset="1" stop-color="#0B77F0"/>
</linearGradient>
<linearGradient id="paint11_linear_1531_30638" x1="203.076" y1="11.3019" x2="204.037" y2="11.303" gradientUnits="userSpaceOnUse">
<stop stop-color="#032449"/>
<stop offset="1" stop-color="#0B77F0"/>
</linearGradient>
<linearGradient id="paint12_linear_1531_30638" x1="203.076" y1="11.3019" x2="204.037" y2="11.303" gradientUnits="userSpaceOnUse">
<stop stop-color="#032449"/>
<stop offset="1" stop-color="#0B77F0"/>
</linearGradient>
<linearGradient id="paint13_linear_1531_30638" x1="207.781" y1="42.9999" x2="244.222" y2="42.7675" gradientUnits="userSpaceOnUse">
<stop stop-color="#010C18" stop-opacity="0.8"/>
<stop offset="1" stop-color="#010C18" stop-opacity="0.45"/>
</linearGradient>
<linearGradient id="paint14_linear_1531_30638" x1="207.022" y1="3.20755" x2="215.502" y2="19.1496" gradientUnits="userSpaceOnUse">
<stop stop-color="#032449"/>
<stop offset="1" stop-color="#0B77F0"/>
</linearGradient>
<linearGradient id="paint15_linear_1531_30638" x1="207.022" y1="42.2075" x2="215.502" y2="58.1496" gradientUnits="userSpaceOnUse">
<stop stop-color="#032449"/>
<stop offset="1" stop-color="#0B77F0"/>
</linearGradient>
<linearGradient id="paint16_linear_1531_30638" x1="207.022" y1="11.3019" x2="245.387" y2="13.105" gradientUnits="userSpaceOnUse">
<stop stop-color="#032449"/>
<stop offset="1" stop-color="#0B77F0"/>
</linearGradient>
<linearGradient id="paint17_linear_1531_30638" x1="244.076" y1="11.3019" x2="245.037" y2="11.303" gradientUnits="userSpaceOnUse">
<stop stop-color="#032449"/>
<stop offset="1" stop-color="#0B77F0"/>
</linearGradient>
<linearGradient id="paint18_linear_1531_30638" x1="244.076" y1="11.3019" x2="245.037" y2="11.303" gradientUnits="userSpaceOnUse">
<stop stop-color="#032449"/>
<stop offset="1" stop-color="#0B77F0"/>
</linearGradient>
<linearGradient id="paint19_linear_1531_30638" x1="248.781" y1="42.9999" x2="285.222" y2="42.7675" gradientUnits="userSpaceOnUse">
<stop stop-color="#010C18" stop-opacity="0.8"/>
<stop offset="1" stop-color="#010C18" stop-opacity="0.45"/>
</linearGradient>
<linearGradient id="paint20_linear_1531_30638" x1="248.022" y1="3.20755" x2="256.502" y2="19.1496" gradientUnits="userSpaceOnUse">
<stop stop-color="#032449"/>
<stop offset="1" stop-color="#0B77F0"/>
</linearGradient>
<linearGradient id="paint21_linear_1531_30638" x1="248.022" y1="42.2075" x2="256.502" y2="58.1496" gradientUnits="userSpaceOnUse">
<stop stop-color="#032449"/>
<stop offset="1" stop-color="#0B77F0"/>
</linearGradient>
<linearGradient id="paint22_linear_1531_30638" x1="248.022" y1="11.3019" x2="286.387" y2="13.105" gradientUnits="userSpaceOnUse">
<stop stop-color="#032449"/>
<stop offset="1" stop-color="#0B77F0"/>
</linearGradient>
<linearGradient id="paint23_linear_1531_30638" x1="285.076" y1="11.3019" x2="286.037" y2="11.303" gradientUnits="userSpaceOnUse">
<stop stop-color="#032449"/>
<stop offset="1" stop-color="#0B77F0"/>
</linearGradient>
<linearGradient id="paint24_linear_1531_30638" x1="285.076" y1="11.3019" x2="286.037" y2="11.303" gradientUnits="userSpaceOnUse">
<stop stop-color="#032449"/>
<stop offset="1" stop-color="#0B77F0"/>
</linearGradient>
<linearGradient id="paint25_linear_1531_30638" x1="289.781" y1="42.9999" x2="326.222" y2="42.7675" gradientUnits="userSpaceOnUse">
<stop stop-color="#010C18" stop-opacity="0.8"/>
<stop offset="1" stop-color="#010C18" stop-opacity="0.45"/>
</linearGradient>
<linearGradient id="paint26_linear_1531_30638" x1="289.022" y1="3.20755" x2="297.502" y2="19.1496" gradientUnits="userSpaceOnUse">
<stop stop-color="#032449"/>
<stop offset="1" stop-color="#0B77F0"/>
</linearGradient>
<linearGradient id="paint27_linear_1531_30638" x1="289.022" y1="42.2075" x2="297.502" y2="58.1496" gradientUnits="userSpaceOnUse">
<stop stop-color="#032449"/>
<stop offset="1" stop-color="#0B77F0"/>
</linearGradient>
<linearGradient id="paint28_linear_1531_30638" x1="289.022" y1="11.3019" x2="327.387" y2="13.105" gradientUnits="userSpaceOnUse">
<stop stop-color="#032449"/>
<stop offset="1" stop-color="#0B77F0"/>
</linearGradient>
<linearGradient id="paint29_linear_1531_30638" x1="326.076" y1="11.3019" x2="327.037" y2="11.303" gradientUnits="userSpaceOnUse">
<stop stop-color="#032449"/>
<stop offset="1" stop-color="#0B77F0"/>
</linearGradient>
<linearGradient id="paint30_linear_1531_30638" x1="326.076" y1="11.3019" x2="327.037" y2="11.303" gradientUnits="userSpaceOnUse">
<stop stop-color="#032449"/>
<stop offset="1" stop-color="#0B77F0"/>
</linearGradient>
<linearGradient id="paint31_linear_1531_30638" x1="330.781" y1="42.9999" x2="367.222" y2="42.7675" gradientUnits="userSpaceOnUse">
<stop stop-color="#010C18" stop-opacity="0.8"/>
<stop offset="1" stop-color="#010C18" stop-opacity="0.45"/>
</linearGradient>
<linearGradient id="paint32_linear_1531_30638" x1="330.022" y1="3.20755" x2="338.502" y2="19.1496" gradientUnits="userSpaceOnUse">
<stop stop-color="#032449"/>
<stop offset="1" stop-color="#0B77F0"/>
</linearGradient>
<linearGradient id="paint33_linear_1531_30638" x1="330.022" y1="42.2075" x2="338.502" y2="58.1496" gradientUnits="userSpaceOnUse">
<stop stop-color="#032449"/>
<stop offset="1" stop-color="#0B77F0"/>
</linearGradient>
<linearGradient id="paint34_linear_1531_30638" x1="330.022" y1="11.3019" x2="368.387" y2="13.105" gradientUnits="userSpaceOnUse">
<stop stop-color="#032449"/>
<stop offset="1" stop-color="#0B77F0"/>
</linearGradient>
<linearGradient id="paint35_linear_1531_30638" x1="367.076" y1="11.3019" x2="368.037" y2="11.303" gradientUnits="userSpaceOnUse">
<stop stop-color="#032449"/>
<stop offset="1" stop-color="#0B77F0"/>
</linearGradient>
<linearGradient id="paint36_linear_1531_30638" x1="367.076" y1="11.3019" x2="368.037" y2="11.303" gradientUnits="userSpaceOnUse">
<stop stop-color="#032449"/>
<stop offset="1" stop-color="#0B77F0"/>
</linearGradient>
<linearGradient id="paint37_linear_1531_30638" x1="371.781" y1="42.9999" x2="408.222" y2="42.7675" gradientUnits="userSpaceOnUse">
<stop stop-color="#010C18" stop-opacity="0.8"/>
<stop offset="1" stop-color="#010C18" stop-opacity="0.45"/>
</linearGradient>
<linearGradient id="paint38_linear_1531_30638" x1="371.022" y1="3.20755" x2="379.502" y2="19.1496" gradientUnits="userSpaceOnUse">
<stop stop-color="#032449"/>
<stop offset="1" stop-color="#0B77F0"/>
</linearGradient>
<linearGradient id="paint39_linear_1531_30638" x1="371.022" y1="42.2075" x2="379.502" y2="58.1496" gradientUnits="userSpaceOnUse">
<stop stop-color="#032449"/>
<stop offset="1" stop-color="#0B77F0"/>
</linearGradient>
<linearGradient id="paint40_linear_1531_30638" x1="371.022" y1="11.3019" x2="409.387" y2="13.105" gradientUnits="userSpaceOnUse">
<stop stop-color="#032449"/>
<stop offset="1" stop-color="#0B77F0"/>
</linearGradient>
<linearGradient id="paint41_linear_1531_30638" x1="416.697" y1="42.9999" x2="500.495" y2="41.7704" gradientUnits="userSpaceOnUse">
<stop stop-color="#010C18" stop-opacity="0.8"/>
<stop offset="1" stop-color="#010C18" stop-opacity="0.45"/>
</linearGradient>
<linearGradient id="paint42_linear_1531_30638" x1="414.951" y1="11.3019" x2="502.364" y2="20.7508" gradientUnits="userSpaceOnUse">
<stop stop-color="#032449"/>
<stop offset="1" stop-color="#0B77F0"/>
</linearGradient>
</defs>
</svg>
