<svg width="436" height="361" viewBox="0 0 436 361" fill="none" xmlns="http://www.w3.org/2000/svg">
<g clip-path="url(#clip0_761_7814)">
<g filter="url(#filter0_d_761_7814)">
<path d="M73.964 78.201C64.364 78.201 59.372 73.689 59.372 66.969H67.82C67.82 69.465 69.548 71.577 72.956 71.577C76.316 71.577 78.044 69.465 78.044 66.681C78.044 63.849 76.268 61.737 73.004 61.737C69.788 61.737 68.924 63.513 68.396 64.137L60.812 63.081L62.204 44.601H85.052V52.761H69.356L68.972 57.753C68.972 57.753 71.564 55.593 76.028 55.593C83.036 55.593 87.5 59.817 87.5 66.825C87.5 73.113 82.268 78.201 73.964 78.201Z" fill="#E7F2FE"/>
</g>
</g>
<path d="M2 2H146H2ZM146 121.25H2H146ZM2 121.25V2V121.25ZM149 2V121.25H143V2H149Z" fill="#063C7A" mask="url(#path-2-outside-1_761_7814)"/>
<g clip-path="url(#clip1_761_7814)">
<g filter="url(#filter1_d_761_7814)">
<path d="M203.852 77.625V75.321C203.852 69.897 208.988 65.865 213.932 62.169C217.724 59.337 221.324 57.417 221.324 54.297C221.324 52.473 220.124 50.793 217.196 50.793C214.22 50.793 212.54 52.713 212.54 55.305V56.265H203.996C203.948 55.881 203.948 55.545 203.948 55.209C203.948 48.441 208.652 44.025 218.108 44.025C225.932 44.025 230.828 47.961 230.828 53.961C230.828 59.817 226.076 63.177 220.124 67.161C217.772 68.745 216.956 69.321 216.764 69.513H231.212V77.625H203.852Z" fill="#E7F2FE"/>
</g>
</g>
<path d="M287 2V121.25H293V2H287Z" fill="#063C7A" mask="url(#path-5-outside-2_761_7814)"/>
<g clip-path="url(#clip2_761_7814)">
<g filter="url(#filter2_d_761_7814)">
<path d="M361.58 78.201C351.932 78.201 347.516 73.929 347.516 68.697V67.689H355.964V68.601C355.964 70.281 357.548 71.625 360.956 71.625C364.652 71.625 365.948 69.753 365.948 67.209C365.948 64.857 364.46 63.753 362.588 63.753H359.084V57.849H361.82C363.692 57.849 365.18 56.745 365.18 54.393C365.18 52.425 363.692 50.601 360.956 50.601C358.508 50.601 356.588 52.137 356.588 53.769V54.249H348.572V53.049C348.572 48.105 353.324 44.025 361.772 44.025C369.932 44.025 374.54 48.105 374.54 53.001C374.54 56.313 372.572 59.241 369.74 60.297V60.489C373.388 61.641 375.5 64.617 375.5 68.649C375.26 73.929 371.084 78.201 361.58 78.201Z" fill="#E7F2FE"/>
</g>
</g>
<path d="M2 120.5C1.58579 120.5 1.25 120.836 1.25 121.25C1.25 121.664 1.58579 122 2 122L2 120.5ZM2 122L434 122L434 120.5L2 120.5L2 122Z" fill="#0855AB"/>
<g clip-path="url(#clip3_761_7814)">
<g filter="url(#filter3_d_761_7814)">
<path d="M74.684 196.5V189.732H58.604V182.58C61.724 178.02 65.66 170.436 67.82 162.9H77.228C76.508 168.132 69.74 178.02 65.18 182.676H74.684V175.812C76.316 173.46 79.052 168.804 79.724 166.068H83.804V182.676H88.412V189.732H83.804V196.5H74.684Z" fill="#E7F2FE"/>
</g>
</g>
<path d="M143 121.25V239.75H149V121.25H143Z" fill="#063C7A" mask="url(#path-11-outside-3_761_7814)"/>
<g clip-path="url(#clip4_761_7814)">
<g filter="url(#filter4_d_761_7814)">
<path d="M212.252 184.692V182.292C212.252 178.788 218.492 176.772 218.492 172.884C218.492 171.108 217.436 169.524 215.564 169.524C212.78 169.524 212.204 171.54 212.204 173.556C212.204 173.988 212.204 174.42 212.252 174.852H203.42C203.324 174.228 203.276 173.652 203.276 173.028C203.276 166.788 208.844 162.9 216.38 162.9C223.724 162.9 228.668 166.74 228.668 172.692C228.668 179.22 220.46 181.14 220.46 183.684V184.692H212.252ZM211.676 196.5V187.62H221.18V196.5H211.676Z" fill="#E7F2FE"/>
</g>
</g>
<path d="M287 121.25V239.75H293V121.25H287Z" fill="#063C7A" mask="url(#path-14-outside-4_761_7814)"/>
<g clip-path="url(#clip5_761_7814)">
<g filter="url(#filter5_d_761_7814)">
<path d="M361.964 197.076C352.364 197.076 347.372 192.564 347.372 185.844H355.82C355.82 188.34 357.548 190.452 360.956 190.452C364.316 190.452 366.044 188.34 366.044 185.556C366.044 182.724 364.268 180.612 361.004 180.612C357.788 180.612 356.924 182.388 356.396 183.012L348.812 181.956L350.204 163.476H373.052V171.636H357.356L356.972 176.628C356.972 176.628 359.564 174.468 364.028 174.468C371.036 174.468 375.5 178.692 375.5 185.7C375.5 191.988 370.268 197.076 361.964 197.076Z" fill="#E7F2FE"/>
</g>
</g>
<path d="M2 239C1.58579 239 1.25 239.336 1.25 239.75C1.25 240.164 1.58579 240.5 2 240.5L2 239ZM2 240.5L434 240.5L434 239L2 239L2 240.5Z" fill="#0855AB"/>
<g clip-path="url(#clip6_761_7814)">
<g filter="url(#filter6_d_761_7814)">
<path d="M73.964 315.951C64.364 315.951 59.372 311.439 59.372 304.719H67.82C67.82 307.215 69.548 309.327 72.956 309.327C76.316 309.327 78.044 307.215 78.044 304.431C78.044 301.599 76.268 299.487 73.004 299.487C69.788 299.487 68.924 301.263 68.396 301.887L60.812 300.831L62.204 282.351H85.052V290.511H69.356L68.972 295.503C68.972 295.503 71.564 293.343 76.028 293.343C83.036 293.343 87.5 297.567 87.5 304.575C87.5 310.863 82.268 315.951 73.964 315.951Z" fill="#E7F2FE"/>
</g>
</g>
<path d="M2 239.75H146H2ZM146 359H2H146ZM2 359V239.75V359ZM149 239.75V359H143V239.75H149Z" fill="#063C7A" mask="url(#path-19-outside-5_761_7814)"/>
<g clip-path="url(#clip7_761_7814)">
<g filter="url(#filter7_d_761_7814)">
<path d="M217.532 315.951C206.588 315.951 203.468 309.087 203.468 298.863C203.468 288.639 206.588 281.775 217.532 281.775C228.476 281.775 231.548 288.639 231.548 298.863C231.548 309.087 228.476 315.951 217.532 315.951ZM217.532 309.471C220.892 309.471 222.092 307.023 222.092 301.215V296.463C222.092 290.655 220.892 288.255 217.532 288.255C214.172 288.255 212.924 290.655 212.924 296.463V301.215C212.924 307.023 214.172 309.471 217.532 309.471Z" fill="#E7F2FE"/>
</g>
</g>
<path d="M287 239.75V359H293V239.75H287Z" fill="#063C7A" mask="url(#path-22-outside-6_761_7814)"/>
<g clip-path="url(#clip8_761_7814)">
<g filter="url(#filter8_d_761_7814)">
<path d="M361.964 315.951C352.364 315.951 347.372 311.439 347.372 304.719H355.82C355.82 307.215 357.548 309.327 360.956 309.327C364.316 309.327 366.044 307.215 366.044 304.431C366.044 301.599 364.268 299.487 361.004 299.487C357.788 299.487 356.924 301.263 356.396 301.887L348.812 300.831L350.204 282.351H373.052V290.511H357.356L356.972 295.503C356.972 295.503 359.564 293.343 364.028 293.343C371.036 293.343 375.5 297.567 375.5 304.575C375.5 310.863 370.268 315.951 361.964 315.951Z" fill="#E7F2FE"/>
</g>
</g>
<rect x="1.25" y="1.25" width="433.5" height="358.5" rx="12.75" stroke="#0855AB" stroke-width="1.5"/>
<defs>
<filter id="filter0_d_761_7814" x="-3.175" y="-15.55" width="175.05" height="175.05" filterUnits="userSpaceOnUse" color-interpolation-filters="sRGB">
<feFlood flood-opacity="0" result="BackgroundImageFix"/>
<feColorMatrix in="SourceAlpha" type="matrix" values="0 0 0 0 0 0 0 0 0 0 0 0 0 0 0 0 0 0 127 0" result="hardAlpha"/>
<feOffset dx="10.35" dy="10.35"/>
<feGaussianBlur stdDeviation="7.7625"/>
<feComposite in2="hardAlpha" operator="out"/>
<feColorMatrix type="matrix" values="0 0 0 0 0.00392157 0 0 0 0 0.0470588 0 0 0 0 0.0941176 0 0 0 0.25 0"/>
<feBlend mode="normal" in2="BackgroundImageFix" result="effect1_dropShadow_761_7814"/>
<feBlend mode="normal" in="SourceGraphic" in2="effect1_dropShadow_761_7814" result="shape"/>
</filter>
<filter id="filter1_d_761_7814" x="140.825" y="-15.55" width="175.05" height="175.05" filterUnits="userSpaceOnUse" color-interpolation-filters="sRGB">
<feFlood flood-opacity="0" result="BackgroundImageFix"/>
<feColorMatrix in="SourceAlpha" type="matrix" values="0 0 0 0 0 0 0 0 0 0 0 0 0 0 0 0 0 0 127 0" result="hardAlpha"/>
<feOffset dx="10.35" dy="10.35"/>
<feGaussianBlur stdDeviation="7.7625"/>
<feComposite in2="hardAlpha" operator="out"/>
<feColorMatrix type="matrix" values="0 0 0 0 0.00392157 0 0 0 0 0.0470588 0 0 0 0 0.0941176 0 0 0 0.25 0"/>
<feBlend mode="normal" in2="BackgroundImageFix" result="effect1_dropShadow_761_7814"/>
<feBlend mode="normal" in="SourceGraphic" in2="effect1_dropShadow_761_7814" result="shape"/>
</filter>
<filter id="filter2_d_761_7814" x="284.825" y="-15.55" width="175.05" height="175.05" filterUnits="userSpaceOnUse" color-interpolation-filters="sRGB">
<feFlood flood-opacity="0" result="BackgroundImageFix"/>
<feColorMatrix in="SourceAlpha" type="matrix" values="0 0 0 0 0 0 0 0 0 0 0 0 0 0 0 0 0 0 127 0" result="hardAlpha"/>
<feOffset dx="10.35" dy="10.35"/>
<feGaussianBlur stdDeviation="7.7625"/>
<feComposite in2="hardAlpha" operator="out"/>
<feColorMatrix type="matrix" values="0 0 0 0 0.00392157 0 0 0 0 0.0470588 0 0 0 0 0.0941176 0 0 0 0.25 0"/>
<feBlend mode="normal" in2="BackgroundImageFix" result="effect1_dropShadow_761_7814"/>
<feBlend mode="normal" in="SourceGraphic" in2="effect1_dropShadow_761_7814" result="shape"/>
</filter>
<filter id="filter3_d_761_7814" x="-3.175" y="103.325" width="175.05" height="175.05" filterUnits="userSpaceOnUse" color-interpolation-filters="sRGB">
<feFlood flood-opacity="0" result="BackgroundImageFix"/>
<feColorMatrix in="SourceAlpha" type="matrix" values="0 0 0 0 0 0 0 0 0 0 0 0 0 0 0 0 0 0 127 0" result="hardAlpha"/>
<feOffset dx="10.35" dy="10.35"/>
<feGaussianBlur stdDeviation="7.7625"/>
<feComposite in2="hardAlpha" operator="out"/>
<feColorMatrix type="matrix" values="0 0 0 0 0.00392157 0 0 0 0 0.0470588 0 0 0 0 0.0941176 0 0 0 0.25 0"/>
<feBlend mode="normal" in2="BackgroundImageFix" result="effect1_dropShadow_761_7814"/>
<feBlend mode="normal" in="SourceGraphic" in2="effect1_dropShadow_761_7814" result="shape"/>
</filter>
<filter id="filter4_d_761_7814" x="140.825" y="103.325" width="175.05" height="175.05" filterUnits="userSpaceOnUse" color-interpolation-filters="sRGB">
<feFlood flood-opacity="0" result="BackgroundImageFix"/>
<feColorMatrix in="SourceAlpha" type="matrix" values="0 0 0 0 0 0 0 0 0 0 0 0 0 0 0 0 0 0 127 0" result="hardAlpha"/>
<feOffset dx="10.35" dy="10.35"/>
<feGaussianBlur stdDeviation="7.7625"/>
<feComposite in2="hardAlpha" operator="out"/>
<feColorMatrix type="matrix" values="0 0 0 0 0.00392157 0 0 0 0 0.0470588 0 0 0 0 0.0941176 0 0 0 0.25 0"/>
<feBlend mode="normal" in2="BackgroundImageFix" result="effect1_dropShadow_761_7814"/>
<feBlend mode="normal" in="SourceGraphic" in2="effect1_dropShadow_761_7814" result="shape"/>
</filter>
<filter id="filter5_d_761_7814" x="284.825" y="103.325" width="175.05" height="175.05" filterUnits="userSpaceOnUse" color-interpolation-filters="sRGB">
<feFlood flood-opacity="0" result="BackgroundImageFix"/>
<feColorMatrix in="SourceAlpha" type="matrix" values="0 0 0 0 0 0 0 0 0 0 0 0 0 0 0 0 0 0 127 0" result="hardAlpha"/>
<feOffset dx="10.35" dy="10.35"/>
<feGaussianBlur stdDeviation="7.7625"/>
<feComposite in2="hardAlpha" operator="out"/>
<feColorMatrix type="matrix" values="0 0 0 0 0.00392157 0 0 0 0 0.0470588 0 0 0 0 0.0941176 0 0 0 0.25 0"/>
<feBlend mode="normal" in2="BackgroundImageFix" result="effect1_dropShadow_761_7814"/>
<feBlend mode="normal" in="SourceGraphic" in2="effect1_dropShadow_761_7814" result="shape"/>
</filter>
<filter id="filter6_d_761_7814" x="-3.175" y="222.2" width="175.05" height="175.05" filterUnits="userSpaceOnUse" color-interpolation-filters="sRGB">
<feFlood flood-opacity="0" result="BackgroundImageFix"/>
<feColorMatrix in="SourceAlpha" type="matrix" values="0 0 0 0 0 0 0 0 0 0 0 0 0 0 0 0 0 0 127 0" result="hardAlpha"/>
<feOffset dx="10.35" dy="10.35"/>
<feGaussianBlur stdDeviation="7.7625"/>
<feComposite in2="hardAlpha" operator="out"/>
<feColorMatrix type="matrix" values="0 0 0 0 0.00392157 0 0 0 0 0.0470588 0 0 0 0 0.0941176 0 0 0 0.25 0"/>
<feBlend mode="normal" in2="BackgroundImageFix" result="effect1_dropShadow_761_7814"/>
<feBlend mode="normal" in="SourceGraphic" in2="effect1_dropShadow_761_7814" result="shape"/>
</filter>
<filter id="filter7_d_761_7814" x="140.825" y="222.2" width="175.05" height="175.05" filterUnits="userSpaceOnUse" color-interpolation-filters="sRGB">
<feFlood flood-opacity="0" result="BackgroundImageFix"/>
<feColorMatrix in="SourceAlpha" type="matrix" values="0 0 0 0 0 0 0 0 0 0 0 0 0 0 0 0 0 0 127 0" result="hardAlpha"/>
<feOffset dx="10.35" dy="10.35"/>
<feGaussianBlur stdDeviation="7.7625"/>
<feComposite in2="hardAlpha" operator="out"/>
<feColorMatrix type="matrix" values="0 0 0 0 0.00392157 0 0 0 0 0.0470588 0 0 0 0 0.0941176 0 0 0 0.25 0"/>
<feBlend mode="normal" in2="BackgroundImageFix" result="effect1_dropShadow_761_7814"/>
<feBlend mode="normal" in="SourceGraphic" in2="effect1_dropShadow_761_7814" result="shape"/>
</filter>
<filter id="filter8_d_761_7814" x="284.825" y="222.2" width="175.05" height="175.05" filterUnits="userSpaceOnUse" color-interpolation-filters="sRGB">
<feFlood flood-opacity="0" result="BackgroundImageFix"/>
<feColorMatrix in="SourceAlpha" type="matrix" values="0 0 0 0 0 0 0 0 0 0 0 0 0 0 0 0 0 0 127 0" result="hardAlpha"/>
<feOffset dx="10.35" dy="10.35"/>
<feGaussianBlur stdDeviation="7.7625"/>
<feComposite in2="hardAlpha" operator="out"/>
<feColorMatrix type="matrix" values="0 0 0 0 0.00392157 0 0 0 0 0.0470588 0 0 0 0 0.0941176 0 0 0 0.25 0"/>
<feBlend mode="normal" in2="BackgroundImageFix" result="effect1_dropShadow_761_7814"/>
<feBlend mode="normal" in="SourceGraphic" in2="effect1_dropShadow_761_7814" result="shape"/>
</filter>
<clipPath id="clip0_761_7814">
<path d="M2 26C2 12.7452 12.7452 2 26 2H146V121.25H2V26Z" fill="white"/>
</clipPath>
<clipPath id="clip1_761_7814">
<path d="M146 2H290V121.25H146V2Z" fill="white"/>
</clipPath>
<clipPath id="clip2_761_7814">
<path d="M290 2H410C423.255 2 434 12.7452 434 26V121.25H290V2Z" fill="white"/>
</clipPath>
<clipPath id="clip3_761_7814">
<path d="M2 121.25H146V239.75H2V121.25Z" fill="white"/>
</clipPath>
<clipPath id="clip4_761_7814">
<path d="M146 121.25H290V239.75H146V121.25Z" fill="white"/>
</clipPath>
<clipPath id="clip5_761_7814">
<rect width="144" height="118.5" fill="white" transform="translate(290 121.25)"/>
</clipPath>
<clipPath id="clip6_761_7814">
<path d="M2 239.75H146V359H26C12.7452 359 2 348.255 2 335V239.75Z" fill="white"/>
</clipPath>
<clipPath id="clip7_761_7814">
<path d="M146 239.75H290V359H146V239.75Z" fill="white"/>
</clipPath>
<clipPath id="clip8_761_7814">
<path d="M290 239.75H434V335C434 348.255 423.255 359 410 359H290V239.75Z" fill="white"/>
</clipPath>
</defs>
</svg>
