<svg width="205" height="224" viewBox="0 0 205 224" fill="none" xmlns="http://www.w3.org/2000/svg">
<rect x="24.5417" y="40.5417" width="70.9167" height="62.9167" rx="7.45833" fill="#0855AB"/>
<path d="M59.8067 78.208C56.3227 78.208 54.728 76.6653 54.728 74.776V74.412H57.7787V74.7413C57.7787 75.348 58.3507 75.8333 59.5813 75.8333C60.916 75.8333 61.384 75.1573 61.384 74.2387C61.384 73.3893 60.8467 72.9907 60.1707 72.9907H58.9053V70.8587H59.8933C60.5693 70.8587 61.1067 70.46 61.1067 69.6107C61.1067 68.9 60.5693 68.2413 59.5813 68.2413C58.6973 68.2413 58.004 68.796 58.004 69.3853V69.5587H55.1093V69.1253C55.1093 67.34 56.8253 65.8667 59.876 65.8667C62.8227 65.8667 64.4867 67.34 64.4867 69.108C64.4867 70.304 63.776 71.3613 62.7533 71.7427V71.812C64.0707 72.228 64.8333 73.3027 64.8333 74.7587C64.7467 76.6653 63.2387 78.208 59.8067 78.208Z" fill="#E7F2FE"/>
<rect x="24.5417" y="40.5417" width="70.9167" height="62.9167" rx="7.45833" stroke="url(#paint0_linear_1097_20986)" stroke-width="1.08333"/>
<rect x="109.542" y="40.5417" width="70.9167" height="62.9167" rx="7.45833" fill="#0855AB"/>
<path d="M145.205 78V75.556H139.399V72.9733C140.525 71.3267 141.947 68.588 142.727 65.8667H146.124C145.864 67.756 143.42 71.3267 141.773 73.008H145.205V70.5293C145.795 69.68 146.783 67.9987 147.025 67.0107H148.499V73.008H150.163V75.556H148.499V78H145.205Z" fill="#E7F2FE"/>
<rect x="109.542" y="40.5417" width="70.9167" height="62.9167" rx="7.45833" stroke="url(#paint1_linear_1097_20986)" stroke-width="1.08333"/>
<rect x="24.5417" y="120.542" width="70.9167" height="62.9167" rx="7.45833" fill="#0855AB"/>
<path d="M55.82 158V155.331H58.6453V149.94H55.82V147.929C57.432 147.825 59.5813 146.941 60.9333 146.057H62.0947V155.331H64.816V158H55.82Z" fill="#E7F2FE"/>
<rect x="24.5417" y="120.542" width="70.9167" height="62.9167" rx="7.45833" stroke="url(#paint2_linear_1097_20986)" stroke-width="1.08333"/>
<rect x="109.542" y="120.542" width="70.9167" height="62.9167" rx="7.45833" fill="#0855AB"/>
<path d="M139.849 158V157.168C139.849 155.209 141.704 153.753 143.489 152.419C144.859 151.396 146.159 150.703 146.159 149.576C146.159 148.917 145.725 148.311 144.668 148.311C143.593 148.311 142.987 149.004 142.987 149.94V150.287H139.901C139.884 150.148 139.884 150.027 139.884 149.905C139.884 147.461 141.583 145.867 144.997 145.867C147.823 145.867 149.591 147.288 149.591 149.455C149.591 151.569 147.875 152.783 145.725 154.221C144.876 154.793 144.581 155.001 144.512 155.071H149.729V158H139.849Z" fill="#E7F2FE"/>
<rect x="109.542" y="120.542" width="70.9167" height="62.9167" rx="7.45833" stroke="url(#paint3_linear_1097_20986)" stroke-width="1.08333"/>
<defs>
<linearGradient id="paint0_linear_1097_20986" x1="29.44" y1="53.283" x2="98.4567" y2="56.9321" gradientUnits="userSpaceOnUse">
<stop stop-color="#032449"/>
<stop offset="1" stop-color="#0B77F0"/>
</linearGradient>
<linearGradient id="paint1_linear_1097_20986" x1="114.44" y1="53.283" x2="183.457" y2="56.9321" gradientUnits="userSpaceOnUse">
<stop stop-color="#032449"/>
<stop offset="1" stop-color="#0B77F0"/>
</linearGradient>
<linearGradient id="paint2_linear_1097_20986" x1="29.44" y1="133.283" x2="98.4567" y2="136.932" gradientUnits="userSpaceOnUse">
<stop stop-color="#032449"/>
<stop offset="1" stop-color="#0B77F0"/>
</linearGradient>
<linearGradient id="paint3_linear_1097_20986" x1="114.44" y1="133.283" x2="183.457" y2="136.932" gradientUnits="userSpaceOnUse">
<stop stop-color="#032449"/>
<stop offset="1" stop-color="#0B77F0"/>
</linearGradient>
</defs>
</svg>
