<svg width="40" height="40" viewBox="0 0 40 40" fill="none" xmlns="http://www.w3.org/2000/svg">
<path d="M20.25 27.5V31" stroke="#E7F2FE" stroke-width="2.5" stroke-linecap="round" stroke-linejoin="round"/>
<path d="M11.916 36.666H28.5827V34.9993C28.5827 33.166 27.0827 31.666 25.2493 31.666H15.2493C13.416 31.666 11.916 33.166 11.916 34.9993V36.666V36.666Z" stroke="#E7F2FE" stroke-width="2.5" stroke-miterlimit="10"/>
<path d="M10.25 36.666H30.25" stroke="#E7F2FE" stroke-width="2.5" stroke-linecap="round" stroke-linejoin="round"/>
<path d="M20.0007 26.6673C13.5507 26.6673 8.33398 21.4507 8.33398 15.0007V10.0007C8.33398 6.31732 11.3173 3.33398 15.0007 3.33398H25.0007C28.684 3.33398 31.6673 6.31732 31.6673 10.0007V15.0007C31.6673 21.4507 26.4507 26.6673 20.0007 26.6673Z" stroke="#E7F2FE" stroke-width="2.5" stroke-linecap="round" stroke-linejoin="round"/>
<path d="M9.11706 19.4167C7.86706 19.0167 6.76706 18.2833 5.90039 17.4167C4.40039 15.75 3.40039 13.75 3.40039 11.4167C3.40039 9.08333 5.23372 7.25 7.56706 7.25H8.65039C8.31706 8.01667 8.15039 8.86667 8.15039 9.75V14.75C8.15039 16.4167 8.50039 17.9833 9.11706 19.4167Z" stroke="#E7F2FE" stroke-width="2.5" stroke-linecap="round" stroke-linejoin="round"/>
<path d="M30.8828 19.4167C32.1328 19.0167 33.2328 18.2833 34.0995 17.4167C35.5995 15.75 36.5995 13.75 36.5995 11.4167C36.5995 9.08333 34.7661 7.25 32.4328 7.25H31.3495C31.6828 8.01667 31.8495 8.86667 31.8495 9.75V14.75C31.8495 16.4167 31.4995 17.9833 30.8828 19.4167Z" stroke="#E7F2FE" stroke-width="2.5" stroke-linecap="round" stroke-linejoin="round"/>
</svg>
