<svg width="28" height="28" viewBox="0 0 28 28" fill="none" xmlns="http://www.w3.org/2000/svg">
<path d="M23.7393 4.87552C26.9016 9.55368 28.4633 14.8305 27.8795 20.9054C27.877 20.9311 27.8637 20.9547 27.8427 20.9702C25.448 22.7394 23.1279 23.8132 20.8403 24.5253C20.8225 24.5307 20.8034 24.5304 20.7858 24.5244C20.7681 24.5184 20.7528 24.507 20.7419 24.4918C20.2134 23.7519 19.7332 22.9719 19.3125 22.1527C19.2884 22.1045 19.3104 22.0464 19.3601 22.0274C20.1228 21.7382 20.848 21.3917 21.5455 20.9814C21.6005 20.949 21.604 20.8698 21.5532 20.8318C21.4052 20.7212 21.2585 20.605 21.1182 20.4887C21.0919 20.4673 21.0566 20.463 21.0268 20.4775C16.4982 22.5817 11.5373 22.5817 6.95509 20.4775C6.92534 20.4641 6.88999 20.4687 6.86444 20.4898C6.72444 20.606 6.57744 20.7212 6.43079 20.8318C6.38004 20.8698 6.38424 20.949 6.43954 20.9814C7.13709 21.3839 7.86229 21.7382 8.62389 22.0288C8.67324 22.0478 8.69669 22.1045 8.67219 22.1527C8.26059 22.9729 7.78039 23.753 7.24209 24.4929C7.21864 24.5228 7.18014 24.5365 7.14374 24.5253C4.86699 23.8132 2.54684 22.7394 0.152146 20.9702C0.132196 20.9547 0.117846 20.93 0.115746 20.9043C-0.372154 15.6496 0.622195 10.3291 4.25204 4.87446C4.26079 4.86003 4.27409 4.84876 4.28949 4.84206C6.07554 4.01729 7.98899 3.41051 9.98889 3.06398C10.0253 3.05835 10.0617 3.07525 10.0806 3.10765C10.3277 3.54786 10.6101 4.11238 10.8012 4.57372C12.9093 4.24972 15.0502 4.24972 17.2024 4.57372C17.3935 4.12224 17.6661 3.54786 17.9122 3.10765C17.9209 3.09158 17.9345 3.0787 17.951 3.07086C17.9675 3.06302 17.986 3.06061 18.0039 3.06398C20.0048 3.41157 21.9183 4.01835 23.7029 4.84206C23.7187 4.84876 23.7316 4.86003 23.7393 4.87552ZM11.8729 14.8664C11.895 13.313 10.7694 12.0276 9.35644 12.0276C7.95504 12.0276 6.84029 13.3018 6.84029 14.8664C6.84029 16.4308 7.97709 17.7049 9.35644 17.7049C10.7582 17.7049 11.8729 16.4308 11.8729 14.8664ZM21.1766 14.8664C21.1987 13.313 20.0731 12.0276 18.6605 12.0276C17.2587 12.0276 16.144 13.3018 16.144 14.8664C16.144 16.4308 17.2808 17.7049 18.6605 17.7049C20.0731 17.7049 21.1766 16.4308 21.1766 14.8664Z" fill="#85BCF9"/>
</svg>
