<svg width="72" height="72" viewBox="0 0 72 72" fill="none" xmlns="http://www.w3.org/2000/svg">
<path d="M45.7393 26.8755C48.9016 31.5537 50.4633 36.8305 49.8795 42.9054C49.877 42.9311 49.8637 42.9547 49.8427 42.9702C47.448 44.7394 45.1279 45.8132 42.8403 46.5253C42.8225 46.5307 42.8034 46.5304 42.7858 46.5244C42.7681 46.5184 42.7528 46.507 42.7419 46.4918C42.2134 45.7519 41.7332 44.9719 41.3125 44.1527C41.2884 44.1045 41.3104 44.0464 41.3601 44.0274C42.1228 43.7382 42.848 43.3917 43.5455 42.9814C43.6005 42.949 43.604 42.8698 43.5532 42.8318C43.4052 42.7212 43.2585 42.605 43.1182 42.4887C43.0919 42.4673 43.0566 42.463 43.0268 42.4775C38.4982 44.5817 33.5373 44.5817 28.9551 42.4775C28.9253 42.4641 28.89 42.4687 28.8644 42.4898C28.7244 42.606 28.5774 42.7212 28.4308 42.8318C28.38 42.8698 28.3842 42.949 28.4395 42.9814C29.1371 43.3839 29.8623 43.7382 30.6239 44.0288C30.6732 44.0478 30.6967 44.1045 30.6722 44.1527C30.2606 44.9729 29.7804 45.753 29.2421 46.4929C29.2186 46.5228 29.1801 46.5365 29.1437 46.5253C26.867 45.8132 24.5468 44.7394 22.1521 42.9702C22.1322 42.9547 22.1178 42.93 22.1157 42.9043C21.6278 37.6496 22.6222 32.3291 26.252 26.8745C26.2608 26.86 26.2741 26.8488 26.2895 26.8421C28.0755 26.0173 29.989 25.4105 31.9889 25.064C32.0253 25.0583 32.0617 25.0753 32.0806 25.1077C32.3277 25.5479 32.6101 26.1124 32.8012 26.5737C34.9093 26.2497 37.0502 26.2497 39.2024 26.5737C39.3935 26.1222 39.6661 25.5479 39.9122 25.1077C39.9209 25.0916 39.9345 25.0787 39.951 25.0709C39.9675 25.063 39.986 25.0606 40.0039 25.064C42.0048 25.4116 43.9183 26.0184 45.7029 26.8421C45.7187 26.8488 45.7316 26.86 45.7393 26.8755ZM33.8729 36.8664C33.895 35.313 32.7694 34.0276 31.3564 34.0276C29.955 34.0276 28.8403 35.3018 28.8403 36.8664C28.8403 38.4308 29.9771 39.7049 31.3564 39.7049C32.7582 39.7049 33.8729 38.4308 33.8729 36.8664ZM43.1766 36.8664C43.1987 35.313 42.0731 34.0276 40.6605 34.0276C39.2587 34.0276 38.144 35.3018 38.144 36.8664C38.144 38.4308 39.2808 39.7049 40.6605 39.7049C42.0731 39.7049 43.1766 38.4308 43.1766 36.8664Z" fill="#063C7A"/>
</svg>
