<svg width="72" height="72" viewBox="0 0 72 72" fill="none" xmlns="http://www.w3.org/2000/svg">
<path d="M31.9505 36.7676L26.8672 41.8509" stroke="#85BCF9" stroke-width="2.5" stroke-miterlimit="10" stroke-linecap="round" stroke-linejoin="round"/>
<path d="M26.916 36.8164L31.9993 41.8997" stroke="#85BCF9" stroke-width="2.5" stroke-miterlimit="10" stroke-linecap="round" stroke-linejoin="round"/>
<path d="M38.5498 39.334H38.5665" stroke="#85BCF9" stroke-width="3.33333" stroke-miterlimit="10" stroke-linecap="round" stroke-linejoin="round"/>
<path d="M45.1172 39.334H45.1339" stroke="#85BCF9" stroke-width="3.33333" stroke-miterlimit="10" stroke-linecap="round" stroke-linejoin="round"/>
<path d="M41.833 42.6329V42.5996" stroke="#85BCF9" stroke-width="3.33333" stroke-miterlimit="10" stroke-linecap="round" stroke-linejoin="round"/>
<path d="M41.833 36.0665V36.0332" stroke="#85BCF9" stroke-width="3.33333" stroke-miterlimit="10" stroke-linecap="round" stroke-linejoin="round"/>
<path d="M30.9997 52.6667H40.9997C49.333 52.6667 52.6663 49.3333 52.6663 41V37.6667C52.6663 29.3333 49.333 26 40.9997 26H30.9997C22.6663 26 19.333 29.3333 19.333 37.6667V41C19.333 49.3333 22.6663 52.6667 30.9997 52.6667Z" stroke="#85BCF9" stroke-width="2.5" stroke-linecap="round" stroke-linejoin="round"/>
<path d="M37.6831 19.334L37.6665 21.0173C37.6498 21.934 36.9165 22.6673 35.9998 22.6673H35.9498C35.0331 22.6673 34.2998 23.4173 34.2998 24.334C34.2998 25.2507 35.0498 26.0007 35.9665 26.0007H37.6331" stroke="#85BCF9" stroke-width="2.5" stroke-linecap="round" stroke-linejoin="round"/>
</svg>
