<svg width="72" height="72" viewBox="0 0 72 72" fill="none" xmlns="http://www.w3.org/2000/svg">
<path d="M36.25 43.5V47" stroke="#85BCF9" stroke-width="2.5" stroke-linecap="round" stroke-linejoin="round"/>
<path d="M27.916 52.666H44.5827V50.9993C44.5827 49.166 43.0827 47.666 41.2493 47.666H31.2493C29.416 47.666 27.916 49.166 27.916 50.9993V52.666V52.666Z" stroke="#85BCF9" stroke-width="2.5" stroke-miterlimit="10"/>
<path d="M26.25 52.666H46.25" stroke="#85BCF9" stroke-width="2.5" stroke-linecap="round" stroke-linejoin="round"/>
<path d="M35.9997 42.6673C29.5497 42.6673 24.333 37.4507 24.333 31.0007V26.0007C24.333 22.3173 27.3163 19.334 30.9997 19.334H40.9997C44.683 19.334 47.6663 22.3173 47.6663 26.0007V31.0007C47.6663 37.4507 42.4497 42.6673 35.9997 42.6673Z" stroke="#85BCF9" stroke-width="2.5" stroke-linecap="round" stroke-linejoin="round"/>
<path d="M25.1171 35.4167C23.8671 35.0167 22.7671 34.2833 21.9004 33.4167C20.4004 31.75 19.4004 29.75 19.4004 27.4167C19.4004 25.0833 21.2337 23.25 23.5671 23.25H24.6504C24.3171 24.0167 24.1504 24.8667 24.1504 25.75V30.75C24.1504 32.4167 24.5004 33.9833 25.1171 35.4167Z" stroke="#85BCF9" stroke-width="2.5" stroke-linecap="round" stroke-linejoin="round"/>
<path d="M46.8828 35.4167C48.1328 35.0167 49.2328 34.2833 50.0995 33.4167C51.5995 31.75 52.5995 29.75 52.5995 27.4167C52.5995 25.0833 50.7661 23.25 48.4328 23.25H47.3495C47.6828 24.0167 47.8495 24.8667 47.8495 25.75V30.75C47.8495 32.4167 47.4995 33.9833 46.8828 35.4167Z" stroke="#85BCF9" stroke-width="2.5" stroke-linecap="round" stroke-linejoin="round"/>
</svg>
