<svg width="40" height="40" viewBox="0 0 40 40" fill="none" xmlns="http://www.w3.org/2000/svg">
<path d="M34.8465 18.5312C34.8465 26.6812 28.9298 34.3145 20.8465 36.5479C20.2965 36.6979 19.6965 36.6979 19.1465 36.5479C11.0631 34.3145 5.14648 26.6812 5.14648 18.5312V11.2145C5.14648 9.84786 6.17984 8.29786 7.46318 7.7812L16.7465 3.98125C18.8298 3.13125 21.1798 3.13125 23.2631 3.98125L32.5465 7.7812C33.8132 8.29786 34.8632 9.84786 34.8632 11.2145L34.8465 18.5312Z" stroke="#E7F2FE" stroke-width="2.5" stroke-linecap="round" stroke-linejoin="round"/>
<path d="M19.8478 18.1987C19.7811 18.1987 19.6978 18.1987 19.6311 18.1987C18.0645 18.1487 16.8145 16.8487 16.8145 15.2654C16.8145 13.6487 18.1311 12.332 19.7478 12.332C21.3645 12.332 22.6812 13.6487 22.6812 15.2654C22.6645 16.8654 21.4145 18.1487 19.8478 18.1987Z" stroke="#E7F2FE" stroke-width="2.5" stroke-linecap="round" stroke-linejoin="round"/>
<path d="M16.5301 22.8676C14.9301 23.9342 14.9301 25.6842 16.5301 26.7509C18.3467 27.9676 21.3301 27.9676 23.1467 26.7509C24.7467 25.6842 24.7467 23.9342 23.1467 22.8676C21.3467 21.6509 18.3634 21.6509 16.5301 22.8676Z" stroke="#E7F2FE" stroke-width="2.5" stroke-linecap="round" stroke-linejoin="round"/>
</svg>
