<svg width="28" height="28" viewBox="0 0 28 28" fill="none" xmlns="http://www.w3.org/2000/svg">
<path d="M1.71663 12.1941C1.71663 12.1941 14.1004 6.04755 18.3952 3.8832C20.0417 3.01754 25.6251 0.247167 25.6251 0.247167C25.6251 0.247167 28.2021 -0.964764 27.9873 1.97862C27.9157 3.19067 27.343 7.43261 26.7704 12.0209C25.9114 18.5139 24.9808 25.6127 24.9808 25.6127C24.9808 25.6127 24.8377 27.6039 23.6208 27.9502C22.4039 28.2964 20.3995 26.7382 20.0417 26.3918C19.7553 26.1322 14.673 22.2364 12.8119 20.3318C12.3108 19.8124 11.7381 18.7736 12.8834 17.5616C15.4604 14.7047 18.5384 11.1553 20.3995 8.90443C21.2586 7.86551 22.1175 5.44152 18.5384 8.38491C13.4561 12.627 8.44536 16.6093 8.44536 16.6093C8.44536 16.6093 7.30001 17.4749 5.15257 16.6958C3.00504 15.9167 0.499658 14.8778 0.499658 14.8778C0.499658 14.8778 -1.21821 13.5793 1.71663 12.1941Z" fill="#85BCF9"/>
</svg>
