<svg width="72" height="72" viewBox="0 0 72 72" fill="none" xmlns="http://www.w3.org/2000/svg">
<path d="M23.7166 34.1941C23.7166 34.1941 36.1004 28.0475 40.3952 25.8832C42.0417 25.0175 47.6251 22.2472 47.6251 22.2472C47.6251 22.2472 50.2021 21.0352 49.9873 23.9786C49.9157 25.1907 49.343 29.4326 48.7704 34.0209C47.9114 40.5139 46.9808 47.6127 46.9808 47.6127C46.9808 47.6127 46.8377 49.6039 45.6208 49.9502C44.4039 50.2964 42.3995 48.7382 42.0417 48.3918C41.7553 48.1322 36.673 44.2364 34.8119 42.3318C34.3108 41.8124 33.7381 40.7736 34.8834 39.5616C37.4604 36.7047 40.5384 33.1553 42.3995 30.9044C43.2586 29.8655 44.1175 27.4415 40.5384 30.3849C35.4561 34.627 30.4454 38.6093 30.4454 38.6093C30.4454 38.6093 29.3 39.4749 27.1526 38.6958C25.005 37.9167 22.4997 36.8778 22.4997 36.8778C22.4997 36.8778 20.7818 35.5793 23.7166 34.1941Z" fill="#063C7A"/>
</svg>
