<svg width="16" height="16" viewBox="0 0 16 16" fill="none" xmlns="http://www.w3.org/2000/svg">
<path d="M0.980933 6.96804C0.980933 6.96804 8.05735 3.45574 10.5116 2.21897C11.4524 1.72431 14.6429 0.141239 14.6429 0.141239C14.6429 0.141239 16.1155 -0.551294 15.9927 1.13064C15.9518 1.82324 15.6246 4.24721 15.2974 6.86911C14.8065 10.5793 14.2747 14.6358 14.2747 14.6358C14.2747 14.6358 14.1929 15.7737 13.4976 15.9715C12.8022 16.1694 11.6569 15.279 11.4524 15.081C11.2887 14.9327 8.38456 12.7065 7.32106 11.6182C7.03472 11.3214 6.70751 10.7278 7.36194 10.0352C8.83451 8.40268 10.5934 6.37444 11.6569 5.08824C12.1477 4.49458 12.6386 3.10944 10.5934 4.79137C7.68921 7.21541 4.82592 9.49101 4.82592 9.49101C4.82592 9.49101 4.17144 9.98568 2.94433 9.54044C1.71716 9.09528 0.285519 8.50161 0.285519 8.50161C0.285519 8.50161 -0.696122 7.75958 0.980933 6.96804Z" fill="#063C7A"/>
</svg>
