<svg width="28" height="28" viewBox="0 0 28 28" fill="none" xmlns="http://www.w3.org/2000/svg">
<path d="M27.8755 6.83714C26.9698 7.22694 26.0176 7.49837 25.0424 7.64473C25.4983 7.56658 26.1691 6.74596 26.4362 6.41381C26.8418 5.91279 27.151 5.34084 27.348 4.727C27.348 4.68141 27.3935 4.61628 27.348 4.58372C27.325 4.57118 27.2992 4.56461 27.2731 4.56461C27.2469 4.56461 27.2211 4.57118 27.1982 4.58372C26.1393 5.15712 25.0124 5.59475 23.8441 5.88628C23.8034 5.89872 23.76 5.89983 23.7187 5.88951C23.6774 5.87918 23.6397 5.8578 23.6096 5.82766C23.5187 5.71937 23.4208 5.61712 23.3165 5.52156C22.84 5.09461 22.2994 4.74518 21.7144 4.48603C20.9247 4.16207 20.0718 4.02177 19.22 4.07572C18.3935 4.12792 17.5865 4.34961 16.8493 4.727C16.1234 5.12488 15.4854 5.66541 14.9737 6.31612C14.4354 6.98586 14.0467 7.76312 13.8339 8.5956C13.6584 9.38745 13.6385 10.2059 13.7753 11.0053C13.7753 11.1421 13.7753 11.1616 13.6581 11.1421C9.01446 10.4583 5.20448 8.81052 2.09137 5.27407C1.9546 5.11777 1.88296 5.11777 1.77224 5.27407C0.417583 7.33211 1.07537 10.5885 2.7687 12.1972C2.99665 12.4121 3.23111 12.6205 3.47859 12.8159C2.70221 12.7608 1.9448 12.5504 1.25122 12.1972C1.12096 12.1125 1.04932 12.1581 1.04281 12.3144C1.02435 12.5311 1.02435 12.749 1.04281 12.9657C1.1787 14.0042 1.58798 14.988 2.22879 15.8165C2.8696 16.6449 3.71894 17.2884 4.68997 17.6809C4.92668 17.7823 5.17334 17.8587 5.42592 17.9089C4.70718 18.0504 3.97003 18.0724 3.24413 17.974C3.08783 17.9414 3.02921 18.0261 3.08783 18.1759C4.04521 20.781 6.12278 21.5756 7.64678 22.0184C7.85519 22.051 8.06359 22.051 8.29805 22.1031C8.29805 22.1031 8.29805 22.1031 8.25898 22.1422C7.8096 22.9628 5.99253 23.5164 5.15889 23.803C3.63729 24.3495 2.01498 24.5584 0.404557 24.4152C0.150559 24.3761 0.0919436 24.3826 0.0268157 24.4152C-0.0383122 24.4477 0.0268157 24.5194 0.0984563 24.5845C0.424096 24.7994 0.749735 24.9883 1.0884 25.1706C2.09661 25.7205 3.16249 26.1574 4.26664 26.4732C9.98487 28.0493 16.4195 26.89 20.7114 22.6241C24.0851 19.2766 25.2704 14.659 25.2704 10.0349C25.2704 9.85908 25.4853 9.75487 25.609 9.66369C26.4626 8.99867 27.215 8.21329 27.8429 7.33211C27.9517 7.20076 28.0074 7.03352 27.9992 6.86319C27.9992 6.7655 27.9992 6.78504 27.8755 6.83714Z" fill="#85BCF9"/>
</svg>
