<svg width="72" height="72" viewBox="0 0 72 72" fill="none" xmlns="http://www.w3.org/2000/svg">
<path d="M49.8755 28.8376C48.9698 29.2274 48.0176 29.4989 47.0424 29.6452C47.4983 29.5671 48.1691 28.7465 48.4362 28.4143C48.8418 27.9133 49.151 27.3413 49.348 26.7275C49.348 26.6819 49.3935 26.6168 49.348 26.5842C49.325 26.5717 49.2992 26.5651 49.2731 26.5651C49.2469 26.5651 49.2211 26.5717 49.1982 26.5842C48.1393 27.1576 47.0124 27.5952 45.8441 27.8868C45.8034 27.8992 45.76 27.9003 45.7187 27.89C45.6774 27.8797 45.6397 27.8583 45.6096 27.8281C45.5187 27.7199 45.4208 27.6176 45.3165 27.522C44.84 27.0951 44.2994 26.7457 43.7144 26.4865C42.9247 26.1626 42.0718 26.0223 41.22 26.0762C40.3935 26.1284 39.5865 26.3501 38.8493 26.7275C38.1234 27.1254 37.4854 27.6659 36.9737 28.3166C36.4354 28.9864 36.0467 29.7636 35.8339 30.5961C35.6584 31.3879 35.6385 32.2064 35.7753 33.0058C35.7753 33.1426 35.7753 33.1621 35.6581 33.1426C31.0145 32.4587 27.2045 30.811 24.0914 27.2746C23.9546 27.1183 23.883 27.1183 23.7722 27.2746C22.4176 29.3326 23.0754 32.589 24.7687 34.1977C24.9966 34.4126 25.2311 34.621 25.4786 34.8164C24.7022 34.7613 23.9448 34.5509 23.2512 34.1977C23.121 34.113 23.0493 34.1586 23.0428 34.3149C23.0243 34.5316 23.0243 34.7495 23.0428 34.9662C23.1787 36.0047 23.588 36.9885 24.2288 37.817C24.8696 38.6454 25.7189 39.2889 26.69 39.6814C26.9267 39.7828 27.1733 39.8592 27.4259 39.9094C26.7072 40.0509 25.97 40.0729 25.2441 39.9745C25.0878 39.9419 25.0292 40.0266 25.0878 40.1764C26.0452 42.7815 28.1228 43.5761 29.6468 44.0189C29.8552 44.0515 30.0636 44.0515 30.2981 44.1036C30.2981 44.1036 30.2981 44.1036 30.259 44.1427C29.8096 44.9633 27.9925 45.5169 27.1589 45.8034C25.6373 46.35 24.015 46.5589 22.4046 46.4156C22.1506 46.3766 22.0919 46.3831 22.0268 46.4156C21.9617 46.4482 22.0268 46.5198 22.0985 46.585C22.4241 46.7999 22.7497 46.9888 23.0884 47.1711C24.0966 47.721 25.1625 48.1579 26.2666 48.4737C31.9849 50.0498 38.4195 48.8905 42.7114 44.6246C46.0851 41.2771 47.2704 36.6595 47.2704 32.0354C47.2704 31.8596 47.4853 31.7554 47.609 31.6642C48.4626 30.9992 49.215 30.2138 49.8429 29.3326C49.9517 29.2013 50.0074 29.034 49.9992 28.8637C49.9992 28.766 49.9992 28.7855 49.8755 28.8376Z" fill="#063C7A"/>
</svg>
