<svg width="286" height="287" viewBox="0 0 286 287" fill="none" xmlns="http://www.w3.org/2000/svg">
<path d="M49.6822 133.512L50.1323 133.962L52.788 136.618C55.2377 139.068 59.2897 138.059 60.5421 135C66.0878 121.454 76.6118 105.957 91.0017 91.5671C105.391 77.1772 120.888 66.6531 134.434 61.1074C137.493 59.8549 138.501 55.8029 136.052 53.3532L133.396 50.6973L132.946 50.2472L132.423 49.7245L130.91 48.2111L95.7544 13.0554C94.3684 11.6694 92.2449 11.288 90.4577 12.1602C83.6643 15.4753 76.9505 19.3602 70.4012 23.8006L68.3979 25.1588L68.4083 25.1692L67.6204 25.7264C60.0592 31.0744 52.7358 37.1723 45.7842 43.9985L44.8514 44.9145L44.8468 44.91L44.5976 45.1638L44.3442 45.4126L44.3487 45.4172L43.4327 46.35C37.1961 52.7013 31.5675 59.363 26.5633 66.2328L25.98 67.0336L25.9702 67.0237L25.5685 67.5984L25.5563 67.6152L25.5566 67.6155L24.6036 68.9793C19.5889 76.1552 15.2465 83.5411 11.5952 91.0234C10.723 92.8107 11.1044 94.9341 12.4904 96.3202L47.646 131.476L49.1595 132.99L49.6822 133.512Z" stroke="url(#paint0_linear_879_22255)" stroke-width="4"/>
<mask id="path-2-outside-1_879_22255" maskUnits="userSpaceOnUse" x="44.8778" y="46.1064" width="244.658" height="244.66" fill="black">
<rect fill="white" x="44.8778" y="46.1064" width="244.658" height="244.66"/>
<path fill-rule="evenodd" clip-rule="evenodd" d="M93.5216 185.485C74.9836 166.947 71.5923 141.462 81.113 119.243C89.1524 129.723 98.3314 139.449 105.201 146.318C115.371 156.488 130.636 160.307 144.98 163.896C157.354 166.992 169.043 169.916 176.183 176.599C169.681 169.365 166.73 157.843 163.609 145.66L163.609 145.66C159.929 131.293 156.013 116.008 145.762 105.756C138.905 98.8997 129.221 89.7233 118.787 81.6709C140.964 72.2445 166.362 75.6671 184.85 94.1557C196.12 105.426 199.805 123.842 204.274 146.174C209.804 173.815 216.536 207.456 240.336 240.971C205.518 217.275 172.175 210.499 145.028 204.982L145.028 204.982C122.878 200.48 104.853 196.817 93.5216 185.485ZM99.6979 123.378C95.7909 119.471 91.0782 114.424 87.2655 109.093C90.3086 105.519 94.1732 101.12 97.4031 97.8914C100.615 94.6805 104.988 90.8395 108.547 87.8098C113.864 91.637 118.9 96.3616 122.807 100.269C130.331 107.793 135.992 124.096 139.665 134.672C141.073 138.728 142.189 141.941 143.006 143.496C141.472 142.65 138.109 141.49 133.847 140.02C123.258 136.367 107.12 130.8 99.6979 123.378Z"/>
</mask>
<path d="M81.113 119.243L84.2866 116.809L80.1275 111.387L77.4363 117.668L81.113 119.243ZM144.98 163.896L144.009 167.776L144.009 167.776L144.98 163.896ZM176.183 176.599L173.45 179.519L179.158 173.925L176.183 176.599ZM163.609 145.66L159.7 146.51L159.716 146.582L159.734 146.653L163.609 145.66ZM163.609 145.66L167.518 144.81L167.502 144.739L167.484 144.667L163.609 145.66ZM118.787 81.6709L117.223 77.9896L110.934 80.6626L116.344 84.8375L118.787 81.6709ZM204.274 146.174L200.352 146.959L204.274 146.174ZM240.336 240.971L238.085 244.278L243.597 238.655L240.336 240.971ZM145.028 204.982L145.825 201.062L145.813 201.06L145.028 204.982ZM145.028 204.982L144.232 208.902L144.244 208.904L145.028 204.982ZM87.2655 109.093L84.2199 106.5L82.1946 108.879L84.012 111.42L87.2655 109.093ZM97.4031 97.8914L100.231 100.72L100.231 100.72L97.4031 97.8914ZM108.547 87.8098L110.883 84.5633L108.34 82.7326L105.954 84.764L108.547 87.8098ZM139.665 134.672L135.886 135.984L139.665 134.672ZM143.006 143.496L141.074 146.998L152.747 153.436L146.547 141.635L143.006 143.496ZM133.847 140.02L135.151 136.238L133.847 140.02ZM77.4363 117.668C67.3222 141.272 70.9103 168.531 90.6932 188.314L96.35 182.657C79.0569 165.363 75.8624 141.653 84.7896 120.819L77.4363 117.668ZM108.029 143.49C101.22 136.68 92.1762 127.093 84.2866 116.809L77.9393 121.678C86.1286 132.353 95.4431 142.217 102.372 149.147L108.029 143.49ZM145.95 160.015C131.334 156.359 117.27 152.731 108.029 143.49L102.372 149.147C113.471 160.246 129.937 164.256 144.009 167.776L145.95 160.015ZM178.916 173.678C174.786 169.812 169.509 167.183 163.914 165.144C158.319 163.105 152.09 161.551 145.95 160.015L144.009 167.776C150.244 169.336 156.046 170.792 161.175 172.66C166.302 174.529 170.441 176.703 173.45 179.519L178.916 173.678ZM159.734 146.653C161.283 152.699 162.849 158.828 164.871 164.359C166.894 169.891 169.473 175.116 173.208 179.273L179.158 173.925C176.392 170.847 174.243 166.694 172.385 161.612C170.526 156.527 169.056 150.804 167.484 144.668L159.734 146.653ZM159.7 146.51L159.7 146.51L167.518 144.81L167.518 144.81L159.7 146.51ZM142.934 108.585C152.267 117.919 155.986 132.021 159.734 146.653L167.484 144.667C163.871 130.564 159.759 114.097 148.59 102.928L142.934 108.585ZM116.344 84.8375C126.584 92.741 136.132 101.783 142.934 108.585L148.59 102.928C141.679 96.0161 131.858 86.7056 121.231 78.5043L116.344 84.8375ZM187.679 91.3273C167.949 71.5976 140.783 67.975 117.223 77.9896L120.352 85.3521C141.145 76.514 164.774 79.7367 182.022 96.9842L187.679 91.3273ZM208.196 145.389C205.975 134.288 203.891 123.847 200.913 114.77C197.926 105.664 193.934 97.5829 187.679 91.3273L182.022 96.9842C187.036 101.999 190.522 108.761 193.312 117.264C196.111 125.795 198.104 135.728 200.352 146.959L208.196 145.389ZM243.597 238.655C220.339 205.902 213.727 173.03 208.196 145.389L200.352 146.959C205.882 174.6 212.733 209.009 237.074 243.287L243.597 238.655ZM144.232 208.902C171.354 214.414 203.99 221.073 238.085 244.278L242.586 237.665C207.047 213.477 172.995 206.584 145.825 201.062L144.232 208.902ZM144.244 208.904L144.244 208.904L145.813 201.06L145.813 201.06L144.244 208.904ZM90.6932 188.314C96.9663 194.587 104.95 198.591 113.954 201.59C122.921 204.577 133.222 206.664 144.232 208.902L145.825 201.062C134.684 198.798 124.897 196.803 116.482 194C108.104 191.209 101.409 187.716 96.35 182.657L90.6932 188.314ZM84.012 111.42C88.0126 117.014 92.9035 122.241 96.8695 126.207L102.526 120.55C98.6782 116.702 94.1437 111.834 90.519 106.766L84.012 111.42ZM94.5753 95.0624C91.226 98.4104 87.2756 102.911 84.2199 106.5L90.3111 111.686C93.3417 108.127 97.1203 103.83 100.231 100.72L94.5753 95.0624ZM105.954 84.764C102.38 87.8063 97.9062 91.7327 94.5753 95.0624L100.231 100.72C103.324 97.6282 107.596 93.8727 111.14 90.8556L105.954 84.764ZM125.635 97.4405C121.675 93.4797 116.461 88.5778 110.883 84.5633L106.21 91.0563C111.267 94.6961 116.125 99.2434 119.979 103.097L125.635 97.4405ZM143.444 133.36C141.614 128.093 139.229 121.217 136.336 114.702C133.482 108.277 129.944 101.749 125.635 97.4405L119.979 103.097C123.194 106.313 126.248 111.698 129.025 117.949C131.761 124.111 134.043 130.675 135.886 135.984L143.444 133.36ZM146.547 141.635C145.909 140.421 144.916 137.602 143.444 133.36L135.886 135.984C137.23 139.854 138.469 143.461 139.465 145.356L146.547 141.635ZM132.543 143.801C137.027 145.348 139.928 146.366 141.074 146.998L144.937 139.993C143.015 138.933 139.19 137.631 135.151 136.238L132.543 143.801ZM96.8695 126.207C101.131 130.468 107.597 133.958 113.969 136.772C120.432 139.626 127.27 141.982 132.543 143.801L135.151 136.238C129.836 134.405 123.31 132.151 117.201 129.453C111.001 126.716 105.687 123.71 102.526 120.55L96.8695 126.207Z" fill="url(#paint1_linear_879_22255)" mask="url(#path-2-outside-1_879_22255)"/>
<defs>
<linearGradient id="paint0_linear_879_22255" x1="97.4102" y1="97.976" x2="46.0224" y2="46.5887" gradientUnits="userSpaceOnUse">
<stop stop-color="#0B77F0"/>
<stop offset="1" stop-color="#85BCF9"/>
</linearGradient>
<linearGradient id="paint1_linear_879_22255" x1="240.336" y1="240.971" x2="97.3287" y2="97.9658" gradientUnits="userSpaceOnUse">
<stop stop-color="#0B77F0"/>
<stop offset="1" stop-color="#85BCF9"/>
</linearGradient>
</defs>
</svg>
