<svg width="119" height="120" viewBox="0 0 119 120" fill="none" xmlns="http://www.w3.org/2000/svg">
<path d="M20.4528 57.0828L20.6285 57.2585L21.7057 58.3357C22.7191 59.3491 24.3971 58.9566 24.9421 57.6956C27.4469 51.9003 32.094 45.2067 38.3669 38.9336C44.6398 32.6607 51.3332 28.0136 57.1284 25.5087C58.3894 24.9637 58.7819 23.2857 57.7685 22.2723L56.6912 21.195L56.5155 21.0193L56.2737 20.7774L55.6781 20.1818L41.3806 5.88412C40.7886 5.29211 39.8782 5.13789 39.1225 5.5242C36.2239 7.00598 33.3514 8.72619 30.5409 10.6778L29.7153 11.2512L29.719 11.2548L29.3476 11.5231C26.1013 13.8684 22.9452 16.5256 19.9358 19.4841L19.5128 19.8999L19.5112 19.8984L19.4221 19.9891L19.3315 20.0781L19.3331 20.0796L18.9172 20.5026C16.2144 23.2522 13.7629 26.1242 11.5711 29.0755L11.2919 29.4515L11.2884 29.448L10.712 30.2549C8.51092 33.3361 6.58973 36.4969 4.95777 39.6894C4.57148 40.445 4.72567 41.3555 5.31769 41.9475L19.6153 56.2453L20.2109 56.8409L20.4528 57.0828Z" stroke="url(#paint0_linear_979_15892)" stroke-width="1.68023"/>
<mask id="path-2-outside-1_979_15892" maskUnits="userSpaceOnUse" x="17.8844" y="18.4813" width="103.237" height="103.238" fill="black">
<rect fill="white" x="17.8844" y="18.4813" width="103.237" height="103.238"/>
<path fill-rule="evenodd" clip-rule="evenodd" d="M38.1845 78.3799C30.6306 70.8259 29.5367 60.1533 33.8298 50.6854C37.0743 54.9882 40.8083 58.9595 43.6079 61.7592C47.7521 65.9034 54.1218 67.3104 60.107 68.6324C65.2706 69.7729 70.148 70.8502 73.0635 73.5675C70.4236 70.6102 69.3326 65.8031 68.1792 60.7207C66.8189 54.7268 65.3716 48.3499 61.1943 44.1725C58.3997 41.3779 54.4457 37.6442 50.162 34.3935C59.6113 30.1394 70.2479 31.2473 77.7822 38.7817C82.3748 43.3743 83.6842 51.0708 85.2721 60.404C87.2375 71.9558 89.6295 86.0149 99.2011 99.7991C84.8683 90.2882 70.9345 87.8733 59.5905 85.9072C50.3342 84.303 42.8022 82.9976 38.1845 78.3799ZM41.5922 52.181C40.0002 50.589 38.0843 48.5281 36.5505 46.3361C37.8768 44.7934 39.5591 42.8934 40.9593 41.4937C42.3522 40.1013 44.2414 38.4287 45.7777 37.1082C47.9637 38.6482 50.0196 40.5693 51.6117 42.1614C54.6778 45.2275 56.8458 52.0094 58.2524 56.4093C58.7917 58.0965 59.2191 59.4334 59.5422 60.0763C58.9081 59.7405 57.509 59.2966 55.7361 58.734C51.3307 57.336 44.6167 55.2055 41.5922 52.181Z"/>
</mask>
<path d="M33.8298 50.6854L35.1714 49.6738L33.468 47.4148L32.2996 49.9915L33.8298 50.6854ZM60.107 68.6324L60.4694 66.9917L60.4694 66.9917L60.107 68.6324ZM73.0635 73.5675L71.918 74.7966L74.3169 72.4485L73.0635 73.5675ZM68.1792 60.7207L66.5406 61.0926L68.1792 60.7207ZM50.162 34.3935L49.4723 32.8614L46.8935 34.0224L49.1463 35.732L50.162 34.3935ZM85.2721 60.404L86.9285 60.1221L85.2721 60.404ZM99.2011 99.7991L98.2721 101.199L100.581 98.8408L99.2011 99.7991ZM59.5905 85.9072L59.3035 87.5628L59.5905 85.9072ZM36.5505 46.3361L35.2764 45.2407L34.4257 46.2302L35.1738 47.2993L36.5505 46.3361ZM40.9593 41.4937L39.7714 40.3054L39.7714 40.3054L40.9593 41.4937ZM45.7777 37.1082L46.7454 35.7346L45.6752 34.9806L44.6824 35.834L45.7777 37.1082ZM58.2524 56.4093L56.652 56.921L58.2524 56.4093ZM59.5422 60.0763L58.7559 61.5612L63.4067 64.0242L61.0435 59.3218L59.5422 60.0763ZM55.7361 58.734L55.2279 60.3355L55.2279 60.3355L55.7361 58.734ZM32.2996 49.9915C27.7622 59.9979 28.8751 71.4465 36.9964 79.568L39.3726 77.1918C32.3861 70.2052 31.3111 60.3087 35.3601 51.3793L32.2996 49.9915ZM44.796 60.571C42.0232 57.7982 38.3497 53.8888 35.1714 49.6738L32.4883 51.6971C35.799 56.0876 39.5934 60.1208 42.4198 62.9473L44.796 60.571ZM60.4694 66.9917C54.3549 65.6411 48.5275 64.3026 44.796 60.571L42.4198 62.9473C46.9767 67.5042 53.8886 68.9796 59.7446 70.2731L60.4694 66.9917ZM74.2091 72.3383C72.5004 70.7459 70.2955 69.7021 67.965 68.9165C65.6336 68.1305 63.0299 67.5572 60.4694 66.9917L59.7446 70.2731C62.3477 70.848 64.7645 71.3837 66.8915 72.1008C69.0196 72.8183 70.7111 73.6718 71.918 74.7966L74.2091 72.3383ZM66.5406 61.0926C67.1128 63.6137 67.6924 66.1753 68.4724 68.4797C69.2522 70.7836 70.2747 72.9664 71.8101 74.6864L74.3169 72.4485C73.2124 71.2112 72.3695 69.5119 71.6554 67.4023C70.9416 65.2933 70.399 62.9101 69.8177 60.3488L66.5406 61.0926ZM60.0062 45.3606C63.7757 49.1302 65.1519 54.9733 66.5406 61.0926L69.8177 60.3488C68.4859 54.4803 66.9676 47.5696 62.3824 42.9844L60.0062 45.3606ZM49.1463 35.732C53.3433 38.9169 57.2363 42.5907 60.0062 45.3606L62.3824 42.9844C59.5631 40.1651 55.5481 36.3716 51.1777 33.055L49.1463 35.732ZM78.9703 37.5935C70.8703 29.4934 59.46 28.3649 49.4723 32.8614L50.8518 35.9257C59.7627 31.9139 69.6256 33.0011 76.5941 39.9698L78.9703 37.5935ZM86.9285 60.1221C86.1394 55.4842 85.3989 51.1161 84.2632 47.3321C83.1243 43.5374 81.5439 40.1672 78.9703 37.5935L76.5941 39.9698C78.6131 41.9888 79.9836 44.763 81.0446 48.2981C82.1088 51.8438 82.8169 55.9906 83.6157 60.6858L86.9285 60.1221ZM100.581 98.8408C91.2452 85.3958 88.8949 71.6799 86.9285 60.1221L83.6157 60.6858C85.5801 72.2318 88.0138 86.634 97.821 100.757L100.581 98.8408ZM59.3035 87.5628C70.6425 89.5279 84.2603 91.9012 98.2721 101.199L100.13 98.3991C85.4763 88.6751 71.2265 86.2186 59.8774 84.2517L59.3035 87.5628ZM36.9964 79.568C39.5767 82.1483 42.9051 83.7353 46.6575 84.8807C50.3952 86.0215 54.7044 86.7657 59.3035 87.5628L59.8774 84.2517C55.2203 83.4445 51.1353 82.7339 47.6385 81.6666C44.1564 80.6037 41.41 79.2292 39.3726 77.1918L36.9964 79.568ZM35.1738 47.2993C36.7902 49.6095 38.7857 51.7507 40.4041 53.3691L42.7803 50.9929C41.2147 49.4273 39.3783 47.4468 37.9272 45.3728L35.1738 47.2993ZM39.7714 40.3054C38.3241 41.7522 36.6077 43.6921 35.2764 45.2407L37.8246 47.4314C39.1458 45.8946 40.794 44.0347 42.1472 42.682L39.7714 40.3054ZM44.6824 35.834C43.1403 37.1596 41.2112 38.8661 39.7714 40.3054L42.1472 42.682C43.4932 41.3365 45.3426 39.6979 46.873 38.3823L44.6824 35.834ZM52.7998 40.9733C51.1838 39.3572 49.0483 37.3571 46.7454 35.7346L44.81 38.4817C46.879 39.9394 48.8555 41.7813 50.4236 43.3495L52.7998 40.9733ZM59.8528 55.8977C59.1525 53.7071 58.2379 50.8429 57.1041 48.136C55.9877 45.4708 54.577 42.7504 52.7998 40.9733L50.4236 43.3495C51.7126 44.6385 52.9188 46.8421 54.0046 49.4343C55.073 51.9849 55.9457 54.7116 56.652 56.921L59.8528 55.8977ZM61.0435 59.3218C60.7963 58.8298 60.4186 57.6676 59.8528 55.8977L56.652 56.921C57.1648 58.5253 57.6419 60.0369 58.0409 60.8308L61.0435 59.3218ZM55.2279 60.3355C56.1206 60.6188 56.8927 60.8639 57.5208 61.0794C58.1759 61.3043 58.5689 61.4622 58.7559 61.5612L60.3286 58.5915C59.8814 58.3546 59.2578 58.1227 58.6116 57.9009C57.9384 57.6699 57.1245 57.4117 56.2442 57.1324L55.2279 60.3355ZM40.4041 53.3691C42.1621 55.1271 44.8572 56.5182 47.5005 57.6186C50.186 58.7367 53.0348 59.6396 55.2279 60.3355L56.2442 57.1324C54.0319 56.4304 51.321 55.5691 48.7921 54.5163C46.221 53.4459 44.0468 52.2595 42.7803 50.9929L40.4041 53.3691Z" fill="url(#paint1_linear_979_15892)" mask="url(#path-2-outside-1_979_15892)"/>
<defs>
<linearGradient id="paint0_linear_979_15892" x1="40.9606" y1="41.5275" x2="20.0204" y2="20.5876" gradientUnits="userSpaceOnUse">
<stop stop-color="#0B77F0"/>
<stop offset="1" stop-color="#85BCF9"/>
</linearGradient>
<linearGradient id="paint1_linear_979_15892" x1="99.2011" y1="99.7991" x2="40.9271" y2="41.5259" gradientUnits="userSpaceOnUse">
<stop stop-color="#0B77F0"/>
<stop offset="1" stop-color="#85BCF9"/>
</linearGradient>
</defs>
</svg>
