<svg width="24" height="25" viewBox="0 0 24 25" fill="none" xmlns="http://www.w3.org/2000/svg">
<path d="M10.7484 23.4977H13.2684C14.2284 23.4977 14.8484 22.8177 14.6684 21.9877L14.2584 20.1777H9.75836L9.34837 21.9877C9.16837 22.7677 9.84837 23.4977 10.7484 23.4977Z" stroke="#063C7A" stroke-width="1.5" stroke-linecap="round" stroke-linejoin="round"/>
<path d="M14.2596 20.1663L15.9896 18.6262C16.9596 17.7662 16.9996 17.1662 16.2296 16.1962L13.1796 12.3263C12.5396 11.5163 11.4896 11.5163 10.8496 12.3263L7.79957 16.1962C7.02957 17.1662 7.02956 17.7962 8.03956 18.6262L9.76957 20.1663" stroke="#063C7A" stroke-width="1.5" stroke-linecap="round" stroke-linejoin="round"/>
<path d="M12.0107 12.1152V14.6453" stroke="#063C7A" stroke-width="1.5" stroke-linecap="round" stroke-linejoin="round"/>
<path d="M12.5186 5.99609H11.5186C10.9686 5.99609 10.5186 5.54609 10.5186 4.99609V3.99609C10.5186 3.44609 10.9686 2.99609 11.5186 2.99609H12.5186C13.0686 2.99609 13.5186 3.44609 13.5186 3.99609V4.99609C13.5186 5.54609 13.0686 5.99609 12.5186 5.99609Z" stroke="#063C7A" stroke-width="1.5" stroke-linecap="round" stroke-linejoin="round"/>
<path d="M3.26855 15.168H4.26855C4.81855 15.168 5.26855 14.718 5.26855 14.168V13.168C5.26855 12.618 4.81855 12.168 4.26855 12.168H3.26855C2.71855 12.168 2.26855 12.618 2.26855 13.168V14.168C2.26855 14.718 2.71855 15.168 3.26855 15.168Z" stroke="#063C7A" stroke-width="1.5" stroke-linecap="round" stroke-linejoin="round"/>
<path d="M20.7285 15.168H19.7285C19.1785 15.168 18.7285 14.718 18.7285 14.168V13.168C18.7285 12.618 19.1785 12.168 19.7285 12.168H20.7285C21.2785 12.168 21.7285 12.618 21.7285 13.168V14.168C21.7285 14.718 21.2785 15.168 20.7285 15.168Z" stroke="#063C7A" stroke-width="1.5" stroke-linecap="round" stroke-linejoin="round"/>
<path d="M10.519 4.55469C6.70903 5.00469 3.74902 8.23467 3.74902 12.1647" stroke="#063C7A" stroke-width="1.5" stroke-linecap="round" stroke-linejoin="round"/>
<path d="M20.2486 12.1647C20.2486 8.24467 17.3086 5.02469 13.5186 4.55469" stroke="#063C7A" stroke-width="1.5" stroke-linecap="round" stroke-linejoin="round"/>
</svg>
