<svg width="16" height="16" viewBox="0 0 16 16" fill="none" xmlns="http://www.w3.org/2000/svg">
<path d="M13.5644 2.78406C15.3714 5.45729 16.2638 8.47263 15.9302 11.944C15.9288 11.9587 15.9212 11.9721 15.9092 11.981C14.5408 12.992 13.215 13.6056 11.9078 14.0125C11.8976 14.0156 11.8867 14.0154 11.8766 14.012C11.8665 14.0086 11.8578 14.0021 11.8516 13.9934C11.5496 13.5706 11.2752 13.1248 11.0348 12.6567C11.021 12.6292 11.0336 12.596 11.062 12.5851C11.4978 12.4199 11.9122 12.2219 12.3108 11.9874C12.3422 11.9689 12.3442 11.9236 12.3152 11.9019C12.2306 11.8387 12.1468 11.7723 12.0666 11.7059C12.0516 11.6936 12.0314 11.6912 12.0144 11.6995C9.42656 12.9019 6.59176 12.9019 3.97336 11.6995C3.95636 11.6918 3.93616 11.6944 3.92156 11.7065C3.84156 11.7729 3.75756 11.8387 3.67376 11.9019C3.64476 11.9236 3.64716 11.9689 3.67876 11.9874C4.07736 12.2174 4.49176 12.4199 4.92696 12.5859C4.95516 12.5968 4.96856 12.6292 4.95456 12.6567C4.71936 13.1254 4.44496 13.5712 4.13736 13.994C4.12396 14.0111 4.10196 14.0189 4.08116 14.0125C2.78016 13.6056 1.45436 12.992 0.0859639 11.981C0.0745639 11.9721 0.0663639 11.9581 0.0651639 11.9434C-0.213636 8.9407 0.354564 5.90042 2.42876 2.78345C2.43376 2.7752 2.44136 2.76876 2.45016 2.76494C3.47076 2.29364 4.56416 1.94691 5.70696 1.7489C5.72776 1.74568 5.74856 1.75533 5.75936 1.77385C5.90056 2.02539 6.06196 2.34798 6.17116 2.6116C7.37576 2.42646 8.59916 2.42646 9.82896 2.6116C9.93816 2.35361 10.094 2.02539 10.2346 1.77385C10.2396 1.76466 10.2473 1.75731 10.2567 1.75282C10.2661 1.74834 10.2767 1.74697 10.287 1.7489C11.4304 1.94752 12.5238 2.29425 13.5436 2.76494C13.5526 2.76876 13.56 2.7752 13.5644 2.78406ZM6.78356 8.49315C6.79616 7.6055 6.15296 6.87098 5.34556 6.87098C4.54476 6.87098 3.90776 7.59906 3.90776 8.49315C3.90776 9.38705 4.55736 10.1151 5.34556 10.1151C6.14656 10.1151 6.78356 9.38705 6.78356 8.49315ZM12.1 8.49315C12.1126 7.6055 11.4694 6.87098 10.6622 6.87098C9.86115 6.87098 9.22416 7.59906 9.22416 8.49315C9.22416 9.38705 9.87375 10.1151 10.6622 10.1151C11.4694 10.1151 12.1 9.38705 12.1 8.49315Z" fill="#063C7A"/>
</svg>
