<svg width="16" height="16" viewBox="0 0 16 16" fill="none" xmlns="http://www.w3.org/2000/svg">
<path d="M15.9279 3.90666C15.4103 4.1294 14.8662 4.2845 14.309 4.36814C14.5695 4.32348 14.9528 3.85456 15.1054 3.66476C15.3372 3.37846 15.5139 3.05163 15.6264 2.70086C15.6264 2.67481 15.6525 2.6376 15.6264 2.61899C15.6133 2.61182 15.5986 2.60807 15.5836 2.60807C15.5687 2.60807 15.554 2.61182 15.5408 2.61899C14.9358 2.94665 14.2918 3.19672 13.6242 3.36331C13.6009 3.37042 13.5762 3.37105 13.5526 3.36515C13.529 3.35925 13.5074 3.34703 13.4902 3.32981C13.4383 3.26793 13.3823 3.20951 13.3228 3.1549C13.0505 2.91093 12.7415 2.71125 12.4072 2.56317C11.956 2.37804 11.4686 2.29787 10.9819 2.3287C10.5096 2.35853 10.0485 2.48521 9.62722 2.70086C9.2124 2.92822 8.84782 3.2371 8.5554 3.60893C8.24781 3.99164 8.02573 4.43579 7.90412 4.91149C7.80384 5.36398 7.79247 5.83165 7.87063 6.28848C7.87063 6.36663 7.87063 6.3778 7.80364 6.36663C5.15014 5.97587 2.97301 5.0343 1.19409 3.01348C1.11594 2.92416 1.075 2.92416 1.01173 3.01348C0.237642 4.1895 0.613523 6.0503 1.58114 6.96953C1.71139 7.09234 1.84537 7.21143 1.98679 7.32308C1.54315 7.29159 1.11034 7.17136 0.714006 6.96953C0.639574 6.92115 0.598637 6.9472 0.594915 7.03652C0.584365 7.16035 0.584365 7.28485 0.594915 7.40868C0.672568 8.00212 0.906441 8.56429 1.27262 9.03771C1.63879 9.51112 2.12413 9.87879 2.67901 10.1031C2.81427 10.161 2.95522 10.2047 3.09955 10.2334C2.68884 10.3142 2.26761 10.3268 1.85281 10.2706C1.76349 10.252 1.73 10.3004 1.7635 10.386C2.31057 11.8746 3.49776 12.3286 4.36861 12.5817C4.4877 12.6003 4.60679 12.6003 4.74077 12.6301C4.74077 12.6301 4.74077 12.6301 4.71844 12.6524C4.46165 13.1213 3.42333 13.4377 2.94696 13.6014C2.07748 13.9137 1.15044 14.0331 0.230199 13.9512C0.085057 13.9289 0.0515626 13.9326 0.0143467 13.9512C-0.0228692 13.9698 0.0143467 14.0108 0.0552842 14.048C0.241364 14.1708 0.427443 14.2787 0.620966 14.3829C1.19709 14.6972 1.80616 14.9468 2.4371 15.1273C5.70466 16.0279 9.38159 15.3654 11.8341 12.9278C13.7619 11.0149 14.4392 8.37629 14.4392 5.73396C14.4392 5.63348 14.5621 5.57393 14.6328 5.52183C15.1205 5.14182 15.5505 4.69303 15.9093 4.1895C15.9714 4.11444 16.0033 4.01888 15.9986 3.92155V3.92155C15.9986 3.86572 15.9986 3.87689 15.9279 3.90666Z" fill="#063C7A"/>
</svg>
