<svg width="336" height="263" viewBox="0 0 336 263" fill="none" xmlns="http://www.w3.org/2000/svg">
<g filter="url(#filter0_f_1719_13457)">
<ellipse cx="166.303" cy="148.07" rx="70.3904" ry="20.862" fill="url(#paint0_linear_1719_13457)" fill-opacity="0.4"/>
<path d="M235.921 148.07C235.921 150.572 234.207 153.114 230.719 155.558C227.253 157.987 222.187 160.205 215.857 162.081C203.209 165.83 185.688 168.16 166.303 168.16C146.919 168.16 129.398 165.83 116.749 162.081C110.42 160.205 105.354 157.987 101.888 155.558C98.4002 153.114 96.6856 150.572 96.6856 148.07C96.6856 145.569 98.4002 143.027 101.888 140.583C105.354 138.154 110.42 135.935 116.749 134.059C129.398 130.311 146.919 127.981 166.303 127.981C185.688 127.981 203.209 130.311 215.857 134.059C222.187 135.935 227.253 138.154 230.719 140.583C234.207 143.027 235.921 145.569 235.921 148.07Z" stroke="url(#paint1_linear_1719_13457)" stroke-width="1.5451"/>
</g>
<g filter="url(#filter1_f_1719_13457)">
<path d="M236.693 148.07C236.693 159.592 205.178 168.932 166.303 168.932" stroke="url(#paint2_linear_1719_13457)" stroke-width="3.86275"/>
</g>
<ellipse cx="166.305" cy="164.992" rx="64.849" ry="24.1618" fill="url(#paint3_linear_1719_13457)"/>
<path fill-rule="evenodd" clip-rule="evenodd" d="M166.304 189.74C202.989 189.74 232.727 178.66 232.727 164.992C232.727 151.324 202.989 140.244 166.304 140.244C129.62 140.244 99.8809 151.324 99.8809 164.992C99.8809 178.66 129.62 189.74 166.304 189.74ZM166.304 189.154C202.12 189.154 231.153 178.336 231.153 164.992C231.153 151.648 202.12 140.83 166.304 140.83C130.489 140.83 101.455 151.648 101.455 164.992C101.455 178.336 130.489 189.154 166.304 189.154Z" fill="url(#paint4_linear_1719_13457)"/>
<g filter="url(#filter2_f_1719_13457)">
<path d="M166.614 216L46.7096 46.8117L289.29 46.8117L166.614 216Z" fill="url(#paint5_linear_1719_13457)" fill-opacity="0.6"/>
</g>
<g filter="url(#filter3_df_1719_13457)">
<path fill-rule="evenodd" clip-rule="evenodd" d="M166.304 189.74C202.989 189.74 232.727 178.66 232.727 164.992C232.727 151.324 202.989 140.244 166.304 140.244C129.62 140.244 99.8809 151.324 99.8809 164.992C99.8809 178.66 129.62 189.74 166.304 189.74ZM166.304 189.262C202.12 189.262 231.153 178.396 231.153 164.992C231.153 151.588 202.12 140.722 166.304 140.722C130.489 140.722 101.455 151.588 101.455 164.992C101.455 178.396 130.489 189.262 166.304 189.262Z" fill="url(#paint6_linear_1719_13457)" shape-rendering="crispEdges"/>
</g>
<g filter="url(#filter4_f_1719_13457)">
<path fill-rule="evenodd" clip-rule="evenodd" d="M166.303 177.095C192.954 177.095 214.558 170.249 214.558 161.803C214.558 153.358 192.954 146.512 166.303 146.512C139.652 146.512 118.047 153.358 118.047 161.803C118.047 170.249 139.652 177.095 166.303 177.095ZM166.302 175.955C190.967 175.955 210.962 169.619 210.962 161.803C210.962 153.987 190.967 147.651 166.302 147.651C141.637 147.651 121.642 153.987 121.642 161.803C121.642 169.619 141.637 175.955 166.302 175.955Z" fill="url(#paint7_linear_1719_13457)"/>
</g>
<g filter="url(#filter5_d_1719_13457)">
<path fill-rule="evenodd" clip-rule="evenodd" d="M166.303 177.095C192.954 177.095 214.558 170.249 214.558 161.803C214.558 153.358 192.954 146.512 166.303 146.512C139.652 146.512 118.047 153.358 118.047 161.803C118.047 170.249 139.652 177.095 166.303 177.095ZM166.302 175.955C190.967 175.955 210.962 169.619 210.962 161.803C210.962 153.987 190.967 147.651 166.302 147.651C141.637 147.651 121.642 153.987 121.642 161.803C121.642 169.619 141.637 175.955 166.302 175.955Z" fill="url(#paint8_linear_1719_13457)" shape-rendering="crispEdges"/>
</g>
<path fill-rule="evenodd" clip-rule="evenodd" d="M232.921 165.14C232.922 165.091 232.922 165.041 232.922 164.992C232.946 164.931 232.971 164.868 232.996 164.804L236.177 150.601C231.963 160.929 202.284 168.932 166.299 168.932C129.835 168.932 99.8464 160.715 96.2666 150.187L99.761 165.411L99.7627 165.415C103.14 180.117 129.607 189.741 166.292 189.741C198.844 189.741 226.09 181.016 231.816 169.501L232.378 167.565L232.921 165.14Z" fill="url(#paint9_linear_1719_13457)" fill-opacity="0.5"/>
<g filter="url(#filter6_f_1719_13457)">
<path fill-rule="evenodd" clip-rule="evenodd" d="M192.303 159.704C192.303 164.254 180.663 167.942 166.304 167.942C151.945 167.942 140.305 164.254 140.305 159.704C140.305 155.153 151.945 151.465 166.304 151.465C178.799 151.465 189.236 154.258 191.735 157.982H189.674C187.096 154.834 177.61 152.499 166.303 152.499C153.014 152.499 142.241 155.725 142.241 159.704C142.241 163.683 153.014 166.908 166.303 166.908C179.592 166.908 190.365 163.683 190.365 159.704C190.365 159.704 190.365 159.704 190.365 159.704H192.303C192.303 159.704 192.303 159.704 192.303 159.704Z" fill="url(#paint10_linear_1719_13457)"/>
</g>
<g filter="url(#filter7_f_1719_13457)">
<path d="M187.276 159.704C187.276 163.053 177.886 165.768 166.304 165.768C154.721 165.768 145.332 163.053 145.332 159.704C145.332 156.354 154.721 153.639 166.304 153.639C177.886 153.639 187.276 156.354 187.276 159.704Z" fill="#4DFFFF"/>
</g>
<g filter="url(#filter8_f_1719_13457)">
<path d="M166.285 194.175L100.619 77.9364L231.616 77.9364L166.285 194.175Z" fill="url(#paint11_linear_1719_13457)"/>
</g>
<g filter="url(#filter9_f_1719_13457)">
<path fill-rule="evenodd" clip-rule="evenodd" d="M229.756 168.307L230.079 161.455C228.742 162.337 227.259 163.188 225.642 164.006C225.498 166.163 225.327 168.73 225.172 171.336C226.88 170.364 228.413 169.352 229.756 168.307ZM219.864 173.988L220.22 166.427C218.056 167.283 215.729 168.09 213.256 168.842C213.088 171.429 212.92 174.18 212.8 176.705C215.327 175.856 217.687 174.948 219.864 173.988ZM206.69 178.557L207.065 170.536C204.065 171.272 200.9 171.935 197.591 172.518C197.411 175.294 197.233 178.204 197.116 180.791C200.47 180.128 203.669 179.381 206.69 178.557Z" fill="#B6E9FF" fill-opacity="0.4"/>
</g>
<g filter="url(#filter10_f_1719_13457)">
<path d="M170.926 159.55C170.926 160.602 168.857 161.455 166.305 161.455C163.752 161.455 161.683 160.602 161.683 159.55C161.683 158.499 163.752 157.646 166.305 157.646C168.857 157.646 170.926 158.499 170.926 159.55Z" fill="#FFFA76"/>
</g>
<g filter="url(#filter11_f_1719_13457)">
<path d="M163.128 175.768C143.759 175.461 125.534 171.242 118.256 168.918L117.52 175.03C121.428 177.144 125.907 178.724 132.412 180.036L132.654 178.272C134.303 178.691 139.234 179.278 141.494 179.52L141.683 176.867C149.277 178.245 158.181 178.454 162.844 178.563L162.906 178.564C162.903 178.355 163.06 177.291 163.128 175.768Z" fill="#B6E9FF" fill-opacity="0.4"/>
</g>
<g filter="url(#filter12_d_1719_13457)">
<path fill-rule="evenodd" clip-rule="evenodd" d="M154.877 36.0738L154.652 41.0593L160.12 44.429L162.667 36.4259C161.081 36.1187 157.755 35.8709 154.877 36.0738ZM152.285 58.3725L135.525 47.1749C135.525 47.1749 137.307 45.6221 140.154 44.3365C143.001 43.051 145.813 42.5288 145.813 42.5288L152.285 58.3725ZM139.947 61.7607L172.218 77.6819L161.599 60.7567L176.532 62.4919L171.457 48.979C192.934 51.0851 209.816 72.6409 209.816 98.9219C209.816 99.8886 209.793 100.849 209.748 101.802C196.114 108.105 187.201 115.625 188.83 120.091C188.937 120.386 189.088 120.662 189.282 120.918C191.085 123.313 192.681 127.086 189.979 128.385C183.185 131.65 175.768 133.447 168.001 133.447C160.233 133.447 152.815 131.65 146.021 128.384C143.319 127.085 144.914 123.312 146.718 120.917C146.911 120.661 147.062 120.386 147.17 120.091C148.798 115.625 139.886 108.106 126.253 101.803C126.229 101.28 126.211 100.754 126.199 100.227C126.19 99.7932 126.186 99.3582 126.186 98.9219C126.186 84.1829 131.495 70.9301 139.947 61.7607ZM162.454 95.5129C162.454 102.193 157.039 107.608 150.359 107.608C143.679 107.608 138.264 102.193 138.264 95.5129C138.264 88.8332 143.679 83.4181 150.359 83.4181C157.039 83.4181 162.454 88.8332 162.454 95.5129ZM185.642 107.608C192.322 107.608 197.736 102.193 197.736 95.5129C197.736 88.8332 192.322 83.4181 185.642 83.4181C178.962 83.4181 173.547 88.8332 173.547 95.5129C173.547 102.193 178.962 107.608 185.642 107.608ZM168.491 107.067L174.611 126.265C174.611 126.265 170.582 127.295 168 127.295C165.419 127.295 161.39 126.265 161.39 126.265L167.509 107.067C167.662 106.588 168.339 106.588 168.491 107.067Z" fill="url(#paint12_linear_1719_13457)" shape-rendering="crispEdges"/>
</g>
<defs>
<filter id="filter0_f_1719_13457" x="94.368" y="125.663" width="143.871" height="44.8142" filterUnits="userSpaceOnUse" color-interpolation-filters="sRGB">
<feFlood flood-opacity="0" result="BackgroundImageFix"/>
<feBlend mode="normal" in="SourceGraphic" in2="BackgroundImageFix" result="shape"/>
<feGaussianBlur stdDeviation="0.772549" result="effect1_foregroundBlur_1719_13457"/>
</filter>
<filter id="filter1_f_1719_13457" x="164.758" y="146.525" width="75.412" height="25.8835" filterUnits="userSpaceOnUse" color-interpolation-filters="sRGB">
<feFlood flood-opacity="0" result="BackgroundImageFix"/>
<feBlend mode="normal" in="SourceGraphic" in2="BackgroundImageFix" result="shape"/>
<feGaussianBlur stdDeviation="0.772549" result="effect1_foregroundBlur_1719_13457"/>
</filter>
<filter id="filter2_f_1719_13457" x="0.35651" y="0.458698" width="335.286" height="261.894" filterUnits="userSpaceOnUse" color-interpolation-filters="sRGB">
<feFlood flood-opacity="0" result="BackgroundImageFix"/>
<feBlend mode="normal" in="SourceGraphic" in2="BackgroundImageFix" result="shape"/>
<feGaussianBlur stdDeviation="23.1765" result="effect1_foregroundBlur_1719_13457"/>
</filter>
<filter id="filter3_df_1719_13457" x="93.7005" y="134.063" width="145.207" height="61.8576" filterUnits="userSpaceOnUse" color-interpolation-filters="sRGB">
<feFlood flood-opacity="0" result="BackgroundImageFix"/>
<feColorMatrix in="SourceAlpha" type="matrix" values="0 0 0 0 0 0 0 0 0 0 0 0 0 0 0 0 0 0 127 0" result="hardAlpha"/>
<feOffset/>
<feGaussianBlur stdDeviation="3.0902"/>
<feComposite in2="hardAlpha" operator="out"/>
<feColorMatrix type="matrix" values="0 0 0 0 0.3625 0 0 0 0 0.847 0 0 0 0 1 0 0 0 0.25 0"/>
<feBlend mode="normal" in2="BackgroundImageFix" result="effect1_dropShadow_1719_13457"/>
<feBlend mode="normal" in="SourceGraphic" in2="effect1_dropShadow_1719_13457" result="shape"/>
<feGaussianBlur stdDeviation="1.5451" result="effect2_foregroundBlur_1719_13457"/>
</filter>
<filter id="filter4_f_1719_13457" x="111.866" y="140.331" width="108.873" height="42.9438" filterUnits="userSpaceOnUse" color-interpolation-filters="sRGB">
<feFlood flood-opacity="0" result="BackgroundImageFix"/>
<feBlend mode="normal" in="SourceGraphic" in2="BackgroundImageFix" result="shape"/>
<feGaussianBlur stdDeviation="3.0902" result="effect1_foregroundBlur_1719_13457"/>
</filter>
<filter id="filter5_d_1719_13457" x="104.141" y="132.606" width="124.323" height="58.3948" filterUnits="userSpaceOnUse" color-interpolation-filters="sRGB">
<feFlood flood-opacity="0" result="BackgroundImageFix"/>
<feColorMatrix in="SourceAlpha" type="matrix" values="0 0 0 0 0 0 0 0 0 0 0 0 0 0 0 0 0 0 127 0" result="hardAlpha"/>
<feOffset/>
<feGaussianBlur stdDeviation="6.95295"/>
<feComposite in2="hardAlpha" operator="out"/>
<feColorMatrix type="matrix" values="0 0 0 0 0.141667 0 0 0 0 0.691 0 0 0 0 1 0 0 0 1 0"/>
<feBlend mode="normal" in2="BackgroundImageFix" result="effect1_dropShadow_1719_13457"/>
<feBlend mode="normal" in="SourceGraphic" in2="effect1_dropShadow_1719_13457" result="shape"/>
</filter>
<filter id="filter6_f_1719_13457" x="138.76" y="149.92" width="55.0887" height="19.5677" filterUnits="userSpaceOnUse" color-interpolation-filters="sRGB">
<feFlood flood-opacity="0" result="BackgroundImageFix"/>
<feBlend mode="normal" in="SourceGraphic" in2="BackgroundImageFix" result="shape"/>
<feGaussianBlur stdDeviation="0.772549" result="effect1_foregroundBlur_1719_13457"/>
</filter>
<filter id="filter7_f_1719_13457" x="140.697" y="149.004" width="51.214" height="21.3996" filterUnits="userSpaceOnUse" color-interpolation-filters="sRGB">
<feFlood flood-opacity="0" result="BackgroundImageFix"/>
<feBlend mode="normal" in="SourceGraphic" in2="BackgroundImageFix" result="shape"/>
<feGaussianBlur stdDeviation="2.31765" result="effect1_foregroundBlur_1719_13457"/>
</filter>
<filter id="filter8_f_1719_13457" x="91.3481" y="68.6658" width="149.538" height="134.78" filterUnits="userSpaceOnUse" color-interpolation-filters="sRGB">
<feFlood flood-opacity="0" result="BackgroundImageFix"/>
<feBlend mode="normal" in="SourceGraphic" in2="BackgroundImageFix" result="shape"/>
<feGaussianBlur stdDeviation="4.6353" result="effect1_foregroundBlur_1719_13457"/>
</filter>
<filter id="filter9_f_1719_13457" x="194.026" y="158.365" width="39.1438" height="25.5159" filterUnits="userSpaceOnUse" color-interpolation-filters="sRGB">
<feFlood flood-opacity="0" result="BackgroundImageFix"/>
<feBlend mode="normal" in="SourceGraphic" in2="BackgroundImageFix" result="shape"/>
<feGaussianBlur stdDeviation="1.5451" result="effect1_foregroundBlur_1719_13457"/>
</filter>
<filter id="filter10_f_1719_13457" x="155.503" y="151.466" width="21.604" height="16.1694" filterUnits="userSpaceOnUse" color-interpolation-filters="sRGB">
<feFlood flood-opacity="0" result="BackgroundImageFix"/>
<feBlend mode="normal" in="SourceGraphic" in2="BackgroundImageFix" result="shape"/>
<feGaussianBlur stdDeviation="3.0902" result="effect1_foregroundBlur_1719_13457"/>
</filter>
<filter id="filter11_f_1719_13457" x="114.43" y="165.828" width="51.7888" height="17.2984" filterUnits="userSpaceOnUse" color-interpolation-filters="sRGB">
<feFlood flood-opacity="0" result="BackgroundImageFix"/>
<feBlend mode="normal" in="SourceGraphic" in2="BackgroundImageFix" result="shape"/>
<feGaussianBlur stdDeviation="1.5451" result="effect1_foregroundBlur_1719_13457"/>
</filter>
<filter id="filter12_d_1719_13457" x="110.735" y="20.549" width="114.532" height="128.349" filterUnits="userSpaceOnUse" color-interpolation-filters="sRGB">
<feFlood flood-opacity="0" result="BackgroundImageFix"/>
<feColorMatrix in="SourceAlpha" type="matrix" values="0 0 0 0 0 0 0 0 0 0 0 0 0 0 0 0 0 0 127 0" result="hardAlpha"/>
<feOffset/>
<feGaussianBlur stdDeviation="7.72549"/>
<feComposite in2="hardAlpha" operator="out"/>
<feColorMatrix type="matrix" values="0 0 0 0 0.204167 0 0 0 0 0.95225 0 0 0 0 1 0 0 0 0.7 0"/>
<feBlend mode="normal" in2="BackgroundImageFix" result="effect1_dropShadow_1719_13457"/>
<feBlend mode="normal" in="SourceGraphic" in2="effect1_dropShadow_1719_13457" result="shape"/>
</filter>
<linearGradient id="paint0_linear_1719_13457" x1="166.303" y1="127.208" x2="166.303" y2="168.932" gradientUnits="userSpaceOnUse">
<stop stop-color="#DEF9FF" stop-opacity="0.5"/>
<stop offset="1" stop-color="#E9FBFF" stop-opacity="0"/>
</linearGradient>
<linearGradient id="paint1_linear_1719_13457" x1="166.303" y1="174.773" x2="166.303" y2="120.71" gradientUnits="userSpaceOnUse">
<stop stop-color="#E8FEFF"/>
<stop offset="1" stop-color="#E8FEFF" stop-opacity="0"/>
</linearGradient>
<linearGradient id="paint2_linear_1719_13457" x1="169.168" y1="170.3" x2="234.233" y2="150.518" gradientUnits="userSpaceOnUse">
<stop stop-color="#E8FEFF" stop-opacity="0"/>
<stop offset="0.599389" stop-color="#E8FEFF"/>
<stop offset="1" stop-color="#E8FEFF" stop-opacity="0"/>
</linearGradient>
<linearGradient id="paint3_linear_1719_13457" x1="166.305" y1="140.83" x2="166.305" y2="189.154" gradientUnits="userSpaceOnUse">
<stop stop-color="#DEF9FF" stop-opacity="0.5"/>
<stop offset="1" stop-color="#E9FBFF" stop-opacity="0"/>
</linearGradient>
<linearGradient id="paint4_linear_1719_13457" x1="166.304" y1="140.244" x2="166.304" y2="189.74" gradientUnits="userSpaceOnUse">
<stop stop-color="#DEF9FF" stop-opacity="0.5"/>
<stop offset="1" stop-color="#E9FBFF" stop-opacity="0.9"/>
</linearGradient>
<linearGradient id="paint5_linear_1719_13457" x1="166.613" y1="216" x2="166.613" y2="46.8117" gradientUnits="userSpaceOnUse">
<stop offset="0.250952" stop-color="#5FF5FF" stop-opacity="0"/>
<stop offset="0.453702" stop-color="#5FE2FF"/>
<stop offset="1" stop-color="#5FD8FF" stop-opacity="0"/>
</linearGradient>
<linearGradient id="paint6_linear_1719_13457" x1="166.304" y1="140.244" x2="166.304" y2="189.74" gradientUnits="userSpaceOnUse">
<stop stop-color="#DEF9FF" stop-opacity="0.5"/>
<stop offset="1" stop-color="#E9FBFF" stop-opacity="0.9"/>
</linearGradient>
<linearGradient id="paint7_linear_1719_13457" x1="166.304" y1="146.512" x2="166.304" y2="177.095" gradientUnits="userSpaceOnUse">
<stop stop-color="#9FF9FF"/>
<stop offset="1" stop-color="#A9FFFA" stop-opacity="0.6"/>
</linearGradient>
<linearGradient id="paint8_linear_1719_13457" x1="166.304" y1="146.512" x2="166.304" y2="177.095" gradientUnits="userSpaceOnUse">
<stop stop-color="#72F7FF"/>
<stop offset="1" stop-color="#A9FFFA" stop-opacity="0.6"/>
</linearGradient>
<linearGradient id="paint9_linear_1719_13457" x1="84.146" y1="169.964" x2="255.946" y2="169.964" gradientUnits="userSpaceOnUse">
<stop stop-color="#B4F1FF"/>
<stop offset="0.472727" stop-color="#D8FFFD" stop-opacity="0"/>
<stop offset="1" stop-color="#B4F1FF"/>
</linearGradient>
<linearGradient id="paint10_linear_1719_13457" x1="166.304" y1="151.465" x2="166.304" y2="167.942" gradientUnits="userSpaceOnUse">
<stop stop-color="#72F7FF"/>
<stop offset="1" stop-color="#96FFF9" stop-opacity="0.6"/>
</linearGradient>
<linearGradient id="paint11_linear_1719_13457" x1="166.284" y1="194.175" x2="166.284" y2="77.9364" gradientUnits="userSpaceOnUse">
<stop offset="0.250952" stop-color="#5FF5FF" stop-opacity="0"/>
<stop offset="0.453702" stop-color="#5FE2FF"/>
<stop offset="1" stop-color="#5FD8FF" stop-opacity="0"/>
</linearGradient>
<linearGradient id="paint12_linear_1719_13457" x1="168.001" y1="84.7235" x2="168" y2="160.663" gradientUnits="userSpaceOnUse">
<stop stop-color="white"/>
<stop offset="1" stop-color="white" stop-opacity="0"/>
</linearGradient>
</defs>
</svg>
