<svg width="332" height="292" viewBox="0 0 332 292" fill="none" xmlns="http://www.w3.org/2000/svg">
<g clip-path="url(#clip0_1328_23852)">
<g filter="url(#filter0_d_1328_23852)">
<path d="M57.973 63.182C50.773 63.182 47.029 59.798 47.029 54.758H53.365C53.365 56.63 54.661 58.214 57.217 58.214C59.737 58.214 61.033 56.63 61.033 54.542C61.033 52.418 59.701 50.834 57.253 50.834C54.841 50.834 54.193 52.166 53.797 52.634L48.109 51.842L49.153 37.982H66.289V44.102H54.517L54.229 47.846C54.229 47.846 56.173 46.226 59.521 46.226C64.777 46.226 68.125 49.394 68.125 54.65C68.125 59.366 64.201 63.182 57.973 63.182Z" fill="#E7F2FE"/>
</g>
</g>
<path d="M4 4H112H4ZM112 96H4H112ZM4 96V4V96ZM116 4V96H108V4H116Z" fill="#063C7A" mask="url(#path-2-outside-1_1328_23852)"/>
<g clip-path="url(#clip1_1328_23852)">
<g filter="url(#filter1_d_1328_23852)">
<path d="M155.389 62.75V61.022C155.389 56.954 159.241 53.93 162.949 51.158C165.793 49.034 168.493 47.594 168.493 45.254C168.493 43.886 167.593 42.626 165.397 42.626C163.165 42.626 161.905 44.066 161.905 46.01V46.73H155.497C155.461 46.442 155.461 46.19 155.461 45.938C155.461 40.862 158.989 37.55 166.081 37.55C171.949 37.55 175.621 40.502 175.621 45.002C175.621 49.394 172.057 51.914 167.593 54.902C165.829 56.09 165.217 56.522 165.073 56.666H175.909V62.75H155.389Z" fill="#E7F2FE"/>
</g>
</g>
<path d="M216 4V96H224V4H216Z" fill="#063C7A" mask="url(#path-5-outside-2_1328_23852)"/>
<g clip-path="url(#clip2_1328_23852)">
<g filter="url(#filter2_d_1328_23852)">
<path d="M273.685 63.182C266.449 63.182 263.137 59.978 263.137 56.054V55.298H269.473V55.982C269.473 57.242 270.661 58.25 273.217 58.25C275.989 58.25 276.961 56.846 276.961 54.938C276.961 53.174 275.845 52.346 274.441 52.346H271.813V47.918H273.865C275.269 47.918 276.385 47.09 276.385 45.326C276.385 43.85 275.269 42.482 273.217 42.482C271.381 42.482 269.941 43.634 269.941 44.858V45.218H263.929V44.318C263.929 40.61 267.493 37.55 273.829 37.55C279.949 37.55 283.405 40.61 283.405 44.282C283.405 46.766 281.929 48.962 279.805 49.754V49.898C282.541 50.762 284.125 52.994 284.125 56.018C283.945 59.978 280.813 63.182 273.685 63.182Z" fill="#E7F2FE"/>
</g>
</g>
<path d="M4 96C2.89543 96 2 96.8954 2 98C2 99.1046 2.89543 100 4 100L4 96ZM4 100L328 100L328 96L4 96L4 100Z" fill="#0855AB"/>
<g clip-path="url(#clip3_1328_23852)">
<g clip-path="url(#clip4_1328_23852)">
<g filter="url(#filter3_d_1328_23852)">
<path d="M58.513 158.75V153.674H46.453V148.31C48.793 144.89 51.745 139.202 53.365 133.55H60.421C59.881 137.474 54.805 144.89 51.385 148.382H58.513V143.234C59.737 141.47 61.789 137.978 62.293 135.926H65.353V148.382H68.809V153.674H65.353V158.75H58.513Z" fill="#E7F2FE"/>
</g>
</g>
<g clip-path="url(#clip5_1328_23852)">
<g filter="url(#filter4_d_1328_23852)">
<rect width="108" height="108" transform="translate(112 92)" fill="#0D0D0D"/>
<path d="M165.829 159.182C158.629 159.182 155.101 155.366 155.101 146.978C155.101 137.366 158.629 133.55 165.829 133.55C171.697 133.55 175.729 136.43 175.729 141.902H169.321C169.321 139.562 167.989 138.41 165.937 138.41C163.021 138.41 162.337 140.282 162.337 144.818C163.813 143.486 166.009 142.946 167.557 142.946C172.453 142.946 176.341 145.61 176.341 150.542C176.341 156.086 172.237 159.182 165.829 159.182ZM165.829 154.322C168.097 154.322 169.393 153.134 169.393 150.866C169.393 148.598 168.133 147.266 165.865 147.266C163.597 147.266 162.337 148.526 162.337 150.794C162.337 153.062 163.561 154.322 165.829 154.322Z" fill="#E7F2FE"/>
</g>
</g>
<path d="M116 192V100H108V192H116Z" fill="#063C7A" mask="url(#path-12-inside-3_1328_23852)"/>
<g clip-path="url(#clip6_1328_23852)">
<g filter="url(#filter5_d_1328_23852)">
<path d="M273.973 159.182C266.773 159.182 263.029 155.798 263.029 150.758H269.365C269.365 152.63 270.661 154.214 273.217 154.214C275.737 154.214 277.033 152.63 277.033 150.542C277.033 148.418 275.701 146.834 273.253 146.834C270.841 146.834 270.193 148.166 269.797 148.634L264.109 147.842L265.153 133.982H282.289V140.102H270.517L270.229 143.846C270.229 143.846 272.173 142.226 275.521 142.226C280.777 142.226 284.125 145.394 284.125 150.65C284.125 155.366 280.201 159.182 273.973 159.182Z" fill="#E7F2FE"/>
</g>
</g>
<path d="M224 192V100H216V192H224Z" fill="#063C7A" mask="url(#path-15-inside-4_1328_23852)"/>
</g>
<path d="M4 192C2.89543 192 2 192.895 2 194C2 195.105 2.89543 196 4 196L4 192ZM4 196L328 196L328 192L4 192L4 196Z" fill="#063C7A"/>
<g clip-path="url(#clip7_1328_23852)">
<g filter="url(#filter6_d_1328_23852)">
<path d="M57.973 255.182C50.773 255.182 47.029 251.798 47.029 246.758H53.365C53.365 248.63 54.661 250.214 57.217 250.214C59.737 250.214 61.033 248.63 61.033 246.542C61.033 244.418 59.701 242.834 57.253 242.834C54.841 242.834 54.193 244.166 53.797 244.634L48.109 243.842L49.153 229.982H66.289V236.102H54.517L54.229 239.846C54.229 239.846 56.173 238.226 59.521 238.226C64.777 238.226 68.125 241.394 68.125 246.65C68.125 251.366 64.201 255.182 57.973 255.182Z" fill="#E7F2FE"/>
</g>
</g>
<path d="M4 196H112H4ZM112 288H4H112ZM4 288V196V288ZM116 196V288H108V196H116Z" fill="#063C7A" mask="url(#path-19-outside-5_1328_23852)"/>
<g clip-path="url(#clip8_1328_23852)">
<g filter="url(#filter7_d_1328_23852)">
<path d="M165.649 255.182C157.441 255.182 155.101 250.034 155.101 242.366C155.101 234.698 157.441 229.55 165.649 229.55C173.857 229.55 176.161 234.698 176.161 242.366C176.161 250.034 173.857 255.182 165.649 255.182ZM165.649 250.322C168.169 250.322 169.069 248.486 169.069 244.13V240.566C169.069 236.21 168.169 234.41 165.649 234.41C163.129 234.41 162.193 236.21 162.193 240.566V244.13C162.193 248.486 163.129 250.322 165.649 250.322Z" fill="#E7F2FE"/>
</g>
</g>
<path d="M216 196V288H224V196H216Z" fill="#063C7A" mask="url(#path-22-outside-6_1328_23852)"/>
<g clip-path="url(#clip9_1328_23852)">
<g filter="url(#filter8_d_1328_23852)">
<path d="M273.973 255.182C266.773 255.182 263.029 251.798 263.029 246.758H269.365C269.365 248.63 270.661 250.214 273.217 250.214C275.737 250.214 277.033 248.63 277.033 246.542C277.033 244.418 275.701 242.834 273.253 242.834C270.841 242.834 270.193 244.166 269.797 244.634L264.109 243.842L265.153 229.982H282.289V236.102H270.517L270.229 239.846C270.229 239.846 272.173 238.226 275.521 238.226C280.777 238.226 284.125 241.394 284.125 246.65C284.125 251.366 280.201 255.182 273.973 255.182Z" fill="#E7F2FE"/>
</g>
</g>
<rect x="2" y="2" width="328" height="288" rx="11" stroke="#0855AB" stroke-width="4"/>
<defs>
<filter id="filter0_d_1328_23852" x="0.11875" y="-7.88125" width="131.287" height="131.287" filterUnits="userSpaceOnUse" color-interpolation-filters="sRGB">
<feFlood flood-opacity="0" result="BackgroundImageFix"/>
<feColorMatrix in="SourceAlpha" type="matrix" values="0 0 0 0 0 0 0 0 0 0 0 0 0 0 0 0 0 0 127 0" result="hardAlpha"/>
<feOffset dx="7.7625" dy="7.7625"/>
<feGaussianBlur stdDeviation="5.82187"/>
<feComposite in2="hardAlpha" operator="out"/>
<feColorMatrix type="matrix" values="0 0 0 0 0.00392157 0 0 0 0 0.0470588 0 0 0 0 0.0941176 0 0 0 0.25 0"/>
<feBlend mode="normal" in2="BackgroundImageFix" result="effect1_dropShadow_1328_23852"/>
<feBlend mode="normal" in="SourceGraphic" in2="effect1_dropShadow_1328_23852" result="shape"/>
</filter>
<filter id="filter1_d_1328_23852" x="108.119" y="-7.88125" width="131.287" height="131.287" filterUnits="userSpaceOnUse" color-interpolation-filters="sRGB">
<feFlood flood-opacity="0" result="BackgroundImageFix"/>
<feColorMatrix in="SourceAlpha" type="matrix" values="0 0 0 0 0 0 0 0 0 0 0 0 0 0 0 0 0 0 127 0" result="hardAlpha"/>
<feOffset dx="7.7625" dy="7.7625"/>
<feGaussianBlur stdDeviation="5.82187"/>
<feComposite in2="hardAlpha" operator="out"/>
<feColorMatrix type="matrix" values="0 0 0 0 0.00392157 0 0 0 0 0.0470588 0 0 0 0 0.0941176 0 0 0 0.25 0"/>
<feBlend mode="normal" in2="BackgroundImageFix" result="effect1_dropShadow_1328_23852"/>
<feBlend mode="normal" in="SourceGraphic" in2="effect1_dropShadow_1328_23852" result="shape"/>
</filter>
<filter id="filter2_d_1328_23852" x="216.119" y="-7.88125" width="131.287" height="131.287" filterUnits="userSpaceOnUse" color-interpolation-filters="sRGB">
<feFlood flood-opacity="0" result="BackgroundImageFix"/>
<feColorMatrix in="SourceAlpha" type="matrix" values="0 0 0 0 0 0 0 0 0 0 0 0 0 0 0 0 0 0 127 0" result="hardAlpha"/>
<feOffset dx="7.7625" dy="7.7625"/>
<feGaussianBlur stdDeviation="5.82187"/>
<feComposite in2="hardAlpha" operator="out"/>
<feColorMatrix type="matrix" values="0 0 0 0 0.00392157 0 0 0 0 0.0470588 0 0 0 0 0.0941176 0 0 0 0.25 0"/>
<feBlend mode="normal" in2="BackgroundImageFix" result="effect1_dropShadow_1328_23852"/>
<feBlend mode="normal" in="SourceGraphic" in2="effect1_dropShadow_1328_23852" result="shape"/>
</filter>
<filter id="filter3_d_1328_23852" x="0.11875" y="88.1187" width="131.287" height="131.287" filterUnits="userSpaceOnUse" color-interpolation-filters="sRGB">
<feFlood flood-opacity="0" result="BackgroundImageFix"/>
<feColorMatrix in="SourceAlpha" type="matrix" values="0 0 0 0 0 0 0 0 0 0 0 0 0 0 0 0 0 0 127 0" result="hardAlpha"/>
<feOffset dx="7.7625" dy="7.7625"/>
<feGaussianBlur stdDeviation="5.82187"/>
<feComposite in2="hardAlpha" operator="out"/>
<feColorMatrix type="matrix" values="0 0 0 0 0.00392157 0 0 0 0 0.0470588 0 0 0 0 0.0941176 0 0 0 0.25 0"/>
<feBlend mode="normal" in2="BackgroundImageFix" result="effect1_dropShadow_1328_23852"/>
<feBlend mode="normal" in="SourceGraphic" in2="effect1_dropShadow_1328_23852" result="shape"/>
</filter>
<filter id="filter4_d_1328_23852" x="108.119" y="88.1187" width="131.287" height="131.287" filterUnits="userSpaceOnUse" color-interpolation-filters="sRGB">
<feFlood flood-opacity="0" result="BackgroundImageFix"/>
<feColorMatrix in="SourceAlpha" type="matrix" values="0 0 0 0 0 0 0 0 0 0 0 0 0 0 0 0 0 0 127 0" result="hardAlpha"/>
<feOffset dx="7.7625" dy="7.7625"/>
<feGaussianBlur stdDeviation="5.82187"/>
<feComposite in2="hardAlpha" operator="out"/>
<feColorMatrix type="matrix" values="0 0 0 0 0.00392157 0 0 0 0 0.0470588 0 0 0 0 0.0941176 0 0 0 0.25 0"/>
<feBlend mode="normal" in2="BackgroundImageFix" result="effect1_dropShadow_1328_23852"/>
<feBlend mode="normal" in="SourceGraphic" in2="effect1_dropShadow_1328_23852" result="shape"/>
</filter>
<filter id="filter5_d_1328_23852" x="216.119" y="88.1187" width="131.287" height="131.287" filterUnits="userSpaceOnUse" color-interpolation-filters="sRGB">
<feFlood flood-opacity="0" result="BackgroundImageFix"/>
<feColorMatrix in="SourceAlpha" type="matrix" values="0 0 0 0 0 0 0 0 0 0 0 0 0 0 0 0 0 0 127 0" result="hardAlpha"/>
<feOffset dx="7.7625" dy="7.7625"/>
<feGaussianBlur stdDeviation="5.82187"/>
<feComposite in2="hardAlpha" operator="out"/>
<feColorMatrix type="matrix" values="0 0 0 0 0.00392157 0 0 0 0 0.0470588 0 0 0 0 0.0941176 0 0 0 0.25 0"/>
<feBlend mode="normal" in2="BackgroundImageFix" result="effect1_dropShadow_1328_23852"/>
<feBlend mode="normal" in="SourceGraphic" in2="effect1_dropShadow_1328_23852" result="shape"/>
</filter>
<filter id="filter6_d_1328_23852" x="0.11875" y="184.119" width="131.287" height="131.287" filterUnits="userSpaceOnUse" color-interpolation-filters="sRGB">
<feFlood flood-opacity="0" result="BackgroundImageFix"/>
<feColorMatrix in="SourceAlpha" type="matrix" values="0 0 0 0 0 0 0 0 0 0 0 0 0 0 0 0 0 0 127 0" result="hardAlpha"/>
<feOffset dx="7.7625" dy="7.7625"/>
<feGaussianBlur stdDeviation="5.82187"/>
<feComposite in2="hardAlpha" operator="out"/>
<feColorMatrix type="matrix" values="0 0 0 0 0.00392157 0 0 0 0 0.0470588 0 0 0 0 0.0941176 0 0 0 0.25 0"/>
<feBlend mode="normal" in2="BackgroundImageFix" result="effect1_dropShadow_1328_23852"/>
<feBlend mode="normal" in="SourceGraphic" in2="effect1_dropShadow_1328_23852" result="shape"/>
</filter>
<filter id="filter7_d_1328_23852" x="108.119" y="184.119" width="131.287" height="131.287" filterUnits="userSpaceOnUse" color-interpolation-filters="sRGB">
<feFlood flood-opacity="0" result="BackgroundImageFix"/>
<feColorMatrix in="SourceAlpha" type="matrix" values="0 0 0 0 0 0 0 0 0 0 0 0 0 0 0 0 0 0 127 0" result="hardAlpha"/>
<feOffset dx="7.7625" dy="7.7625"/>
<feGaussianBlur stdDeviation="5.82187"/>
<feComposite in2="hardAlpha" operator="out"/>
<feColorMatrix type="matrix" values="0 0 0 0 0.00392157 0 0 0 0 0.0470588 0 0 0 0 0.0941176 0 0 0 0.25 0"/>
<feBlend mode="normal" in2="BackgroundImageFix" result="effect1_dropShadow_1328_23852"/>
<feBlend mode="normal" in="SourceGraphic" in2="effect1_dropShadow_1328_23852" result="shape"/>
</filter>
<filter id="filter8_d_1328_23852" x="216.119" y="184.119" width="131.287" height="131.287" filterUnits="userSpaceOnUse" color-interpolation-filters="sRGB">
<feFlood flood-opacity="0" result="BackgroundImageFix"/>
<feColorMatrix in="SourceAlpha" type="matrix" values="0 0 0 0 0 0 0 0 0 0 0 0 0 0 0 0 0 0 127 0" result="hardAlpha"/>
<feOffset dx="7.7625" dy="7.7625"/>
<feGaussianBlur stdDeviation="5.82187"/>
<feComposite in2="hardAlpha" operator="out"/>
<feColorMatrix type="matrix" values="0 0 0 0 0.00392157 0 0 0 0 0.0470588 0 0 0 0 0.0941176 0 0 0 0.25 0"/>
<feBlend mode="normal" in2="BackgroundImageFix" result="effect1_dropShadow_1328_23852"/>
<feBlend mode="normal" in="SourceGraphic" in2="effect1_dropShadow_1328_23852" result="shape"/>
</filter>
<clipPath id="clip0_1328_23852">
<path d="M4 22C4 12.0589 12.0589 4 22 4H112V96H4V22Z" fill="white"/>
</clipPath>
<clipPath id="clip1_1328_23852">
<path d="M112 4H220V96H112V4Z" fill="white"/>
</clipPath>
<clipPath id="clip2_1328_23852">
<path d="M220 4H310C319.941 4 328 12.0589 328 22V96H220V4Z" fill="white"/>
</clipPath>
<clipPath id="clip3_1328_23852">
<rect width="324" height="92" fill="white" transform="translate(4 100)"/>
</clipPath>
<clipPath id="clip4_1328_23852">
<rect width="108" height="92" fill="white" transform="translate(4 100)"/>
</clipPath>
<clipPath id="clip5_1328_23852">
<path d="M112 100H220V192H112V100Z" fill="white"/>
</clipPath>
<clipPath id="clip6_1328_23852">
<path d="M220 100H328V192H220V100Z" fill="white"/>
</clipPath>
<clipPath id="clip7_1328_23852">
<path d="M4 196H112V288H22C12.0589 288 4 279.941 4 270V196Z" fill="white"/>
</clipPath>
<clipPath id="clip8_1328_23852">
<path d="M112 196H220V288H112V196Z" fill="white"/>
</clipPath>
<clipPath id="clip9_1328_23852">
<path d="M220 196H328V270C328 279.941 319.941 288 310 288H220V196Z" fill="white"/>
</clipPath>
</defs>
</svg>
