<svg width="752" height="448" viewBox="0 0 752 448" fill="none" xmlns="http://www.w3.org/2000/svg">
<path d="M299.019 39.4062C298.477 39.4062 298.014 39.599 297.628 39.9844C297.253 40.3594 297.066 40.8177 297.066 41.3594C297.066 41.901 297.253 42.3646 297.628 42.75C298.014 43.125 298.477 43.3125 299.019 43.3125L312.691 43.3125V48L299.019 48C297.185 48 295.618 47.3542 294.316 46.0625C293.024 44.7604 292.378 43.1927 292.378 41.3594C292.378 39.7135 292.904 38.2812 293.956 37.0625C292.904 35.8438 292.378 34.4115 292.378 32.7656C292.378 30.9323 293.024 29.3698 294.316 28.0781C295.618 26.776 297.185 26.125 299.019 26.125L312.691 26.125V30.8125L299.019 30.8125C298.477 30.8125 298.014 31.0052 297.628 31.3906C297.253 31.7656 297.066 32.224 297.066 32.7656C297.066 33.3073 297.253 33.7708 297.628 34.1562C298.014 34.5312 298.477 34.7188 299.019 34.7188L312.691 34.7188V39.4063L299.019 39.4062ZM322.075 37.0313L314.653 26.1094H320.122L324.794 33L329.497 26.125L334.966 26.0938L327.544 37.0469L334.966 47.9844L329.497 48L324.809 41.0781L320.122 48H314.653L322.075 37.0313ZM347.084 26.125L358.803 26.125V48H354.116V30.8125L347.084 30.8125C345.574 30.8125 344.282 31.4219 343.209 32.6406C342.147 33.8594 341.616 35.3333 341.616 37.0625C341.616 38.7917 342.147 40.2656 343.209 41.4844C344.282 42.7031 345.574 43.3125 347.084 43.3125H352.553V48L347.084 48C344.282 48 341.886 46.9323 339.897 44.7969C337.918 42.6615 336.928 40.0833 336.928 37.0625C336.928 34.0417 337.918 31.4635 339.897 29.3281C341.886 27.1927 344.282 26.125 347.084 26.125ZM377.172 33.9375V48H372.484V33.9375C372.484 33.0729 372.177 32.3385 371.562 31.7344C370.958 31.1198 370.224 30.8125 369.359 30.8125C368.495 30.8125 367.755 31.1198 367.141 31.7344C366.536 32.3385 366.234 33.0729 366.234 33.9375V48H361.547V33.9375C361.547 31.7813 362.307 29.9427 363.828 28.4219C365.359 26.8906 367.203 26.125 369.359 26.125C371.495 26.125 373.318 26.8698 374.828 28.3594C376.339 26.8698 378.161 26.125 380.297 26.125C382.453 26.125 384.292 26.8906 385.812 28.4219C387.344 29.9427 388.109 31.7813 388.109 33.9375V48H383.422V33.9375C383.422 33.0729 383.115 32.3385 382.5 31.7344C381.896 31.1198 381.161 30.8125 380.297 30.8125C379.432 30.8125 378.693 31.1198 378.078 31.7344C377.474 32.3385 377.172 33.0729 377.172 33.9375ZM404.134 40.1875L395.541 40.1875V48L390.853 48V35.5L404.134 35.5C404.78 35.5 405.332 35.2708 405.791 34.8125C406.249 34.3542 406.478 33.8021 406.478 33.1563C406.478 32.5104 406.249 31.9583 405.791 31.5C405.332 31.0417 404.78 30.8125 404.134 30.8125L390.853 30.8125V26.125L404.134 26.125C406.072 26.125 407.728 26.8125 409.103 28.1875C410.478 29.5625 411.166 31.2188 411.166 33.1563C411.166 35.0938 410.478 36.75 409.103 38.125C407.728 39.5 406.072 40.1875 404.134 40.1875ZM413.909 26.125L418.597 26.125V43.3125H434.222V48H413.909V26.125ZM443.606 39.4063C443.065 39.4063 442.601 39.599 442.216 39.9844C441.841 40.3594 441.653 40.8177 441.653 41.3594C441.653 41.901 441.841 42.3646 442.216 42.75C442.601 43.125 443.065 43.3125 443.606 43.3125L457.278 43.3125V48H443.606C441.773 48 440.205 47.3542 438.903 46.0625C437.611 44.7604 436.966 43.1927 436.966 41.3594C436.966 39.7135 437.492 38.2813 438.544 37.0625C437.492 35.8438 436.966 34.4115 436.966 32.7656C436.966 30.9323 437.611 29.3698 438.903 28.0781C440.205 26.776 441.773 26.125 443.606 26.125L457.278 26.125V30.8125L443.606 30.8125C443.065 30.8125 442.601 31.0052 442.216 31.3906C441.841 31.7656 441.653 32.224 441.653 32.7656C441.653 33.3073 441.841 33.7708 442.216 34.1563C442.601 34.5313 443.065 34.7188 443.606 34.7188L457.278 34.7188V39.4063L443.606 39.4063Z" fill="white"/>
<path d="M752 78H0V94H752V78Z" fill="#063C7A" mask="url(#path-1-outside-1_761_7950)"/>
<path d="M41.9998 299.92L35.4798 293.4C34.7098 292.63 34.7098 291.37 35.4798 290.6L41.9998 284.08" stroke="white" stroke-width="1.5" stroke-miterlimit="10" stroke-linecap="round" stroke-linejoin="round"/>
<path d="M60.216 298V287.024H65.72C68.136 287.024 69.32 288.384 69.32 290.544C69.32 292.704 68.056 294.096 65.608 294.096H62.296V298H60.216ZM62.296 292.32H65.544C66.6 292.32 67.224 291.648 67.224 290.544C67.224 289.44 66.648 288.8 65.544 288.8H62.296V292.32ZM70.9348 298V287.024H76.7108C79.1428 287.024 80.3268 288.352 80.3268 290.432C80.3268 291.856 79.6708 293.008 78.4388 293.568L80.7108 298H78.4388L76.4228 293.92H73.0148V298H70.9348ZM73.0148 292.176H76.5508C77.6068 292.176 78.2148 291.52 78.2148 290.432C78.2148 289.392 77.6388 288.8 76.5508 288.8H73.0148V292.176ZM82.4035 298V287.024H90.9635V288.8H84.4835V291.504H90.2595V293.28H84.4835V296.224H91.0595V298H82.4035ZM96.0975 298L92.0975 287.024H94.3535L96.9615 294.576C97.0735 294.912 97.2335 295.392 97.3295 295.664H97.4095C97.4895 295.424 97.6335 294.976 97.7615 294.592L100.354 287.024H102.514L98.5135 298H96.0975ZM103.888 298V287.024H105.968V298H103.888ZM113.444 298.192C110.004 298.192 107.908 296.368 107.908 292.512C107.908 288.656 110.004 286.832 113.444 286.832C116.884 286.832 118.98 288.656 118.98 292.512C118.98 296.368 116.884 298.192 113.444 298.192ZM113.444 296.432C115.652 296.432 116.852 295.152 116.852 292.704V292.352C116.852 289.872 115.652 288.592 113.444 288.592C111.236 288.592 110.052 289.872 110.052 292.352V292.704C110.052 295.152 111.236 296.432 113.444 296.432ZM125.479 298.192C122.583 298.192 120.855 296.8 120.855 293.936V287.024H122.935V293.872C122.935 295.568 123.863 296.432 125.479 296.432C127.095 296.432 128.055 295.568 128.055 293.872V287.024H130.135V293.936C130.135 296.8 128.391 298.192 125.479 298.192ZM136.593 298.192C134.145 298.192 132.001 297.12 132.001 294.816C132.001 294.688 132.017 294.544 132.017 294.48H134.113C134.113 294.528 134.097 294.672 134.097 294.752C134.097 295.808 135.057 296.432 136.641 296.432C138.401 296.432 139.137 295.888 139.137 295.072C139.137 292.608 132.273 293.92 132.273 289.872C132.273 287.808 134.161 286.832 136.673 286.832C139.025 286.832 140.961 287.792 140.961 290.016V290.208H138.897V290.048C138.897 289.136 138.001 288.592 136.657 288.592C135.217 288.592 134.369 289.008 134.369 289.776C134.369 291.936 141.233 290.832 141.233 294.784C141.233 297.248 139.281 298.192 136.593 298.192Z" fill="white"/>
<rect x="20" y="272" width="129" height="40" rx="7" stroke="url(#paint0_linear_761_7950)" stroke-width="2"/>
<g clip-path="url(#clip0_761_7950)">
<g filter="url(#filter0_d_761_7950)">
<path d="M267.973 209.182C260.773 209.182 257.029 205.798 257.029 200.758H263.365C263.365 202.63 264.661 204.214 267.217 204.214C269.737 204.214 271.033 202.63 271.033 200.542C271.033 198.418 269.701 196.834 267.253 196.834C264.841 196.834 264.193 198.166 263.797 198.634L258.109 197.842L259.153 183.982H276.289V190.102H264.517L264.229 193.846C264.229 193.846 266.173 192.226 269.521 192.226C274.777 192.226 278.125 195.394 278.125 200.65C278.125 205.366 274.201 209.182 267.973 209.182Z" fill="#E7F2FE"/>
</g>
</g>
<path d="M214 150H322H214ZM322 242H214H322ZM214 242V150V242ZM326 150V242H318V150H326Z" fill="#063C7A" mask="url(#path-8-outside-2_761_7950)"/>
<g clip-path="url(#clip1_761_7950)">
<g filter="url(#filter1_d_761_7950)">
<path d="M365.389 208.75V207.022C365.389 202.954 369.241 199.93 372.949 197.158C375.793 195.034 378.493 193.594 378.493 191.254C378.493 189.886 377.593 188.626 375.397 188.626C373.165 188.626 371.905 190.066 371.905 192.01V192.73H365.497C365.461 192.442 365.461 192.19 365.461 191.938C365.461 186.862 368.989 183.55 376.081 183.55C381.949 183.55 385.621 186.502 385.621 191.002C385.621 195.394 382.057 197.914 377.593 200.902C375.829 202.09 375.217 202.522 375.073 202.666H385.909V208.75H365.389Z" fill="#E7F2FE"/>
</g>
</g>
<path d="M426 150V242H434V150H426Z" fill="#063C7A" mask="url(#path-11-outside-3_761_7950)"/>
<g clip-path="url(#clip2_761_7950)">
<g filter="url(#filter2_d_761_7950)">
<path d="M483.685 209.182C476.449 209.182 473.137 205.978 473.137 202.054V201.298H479.473V201.982C479.473 203.242 480.661 204.25 483.217 204.25C485.989 204.25 486.961 202.846 486.961 200.938C486.961 199.174 485.845 198.346 484.441 198.346H481.813V193.918H483.865C485.269 193.918 486.385 193.09 486.385 191.326C486.385 189.85 485.269 188.482 483.217 188.482C481.381 188.482 479.941 189.634 479.941 190.858V191.218H473.929V190.318C473.929 186.61 477.493 183.55 483.829 183.55C489.949 183.55 493.405 186.61 493.405 190.282C493.405 192.766 491.929 194.962 489.805 195.754V195.898C492.541 196.762 494.125 198.994 494.125 202.018C493.945 205.978 490.813 209.182 483.685 209.182Z" fill="#E7F2FE"/>
</g>
</g>
<path d="M214 242C212.895 242 212 242.895 212 244C212 245.105 212.895 246 214 246L214 242ZM214 246L538 246L538 242L214 242L214 246Z" fill="#0855AB"/>
<g clip-path="url(#clip3_761_7950)">
<g clip-path="url(#clip4_761_7950)">
<g filter="url(#filter3_d_761_7950)">
<path d="M268.513 304.75V299.674H256.453V294.31C258.793 290.89 261.745 285.202 263.365 279.55H270.421C269.881 283.474 264.805 290.89 261.385 294.382H268.513V289.234C269.737 287.47 271.789 283.978 272.293 281.926H275.353V294.382H278.809V299.674H275.353V304.75H268.513Z" fill="#E7F2FE"/>
</g>
</g>
<g clip-path="url(#clip5_761_7950)">
<g filter="url(#filter4_d_761_7950)">
<rect width="108" height="108" transform="translate(322 238)" fill="#0D0D0D"/>
<path d="M375.829 305.182C368.629 305.182 365.101 301.366 365.101 292.978C365.101 283.366 368.629 279.55 375.829 279.55C381.697 279.55 385.729 282.43 385.729 287.902H379.321C379.321 285.562 377.989 284.41 375.937 284.41C373.021 284.41 372.337 286.282 372.337 290.818C373.813 289.486 376.009 288.946 377.557 288.946C382.453 288.946 386.341 291.61 386.341 296.542C386.341 302.086 382.237 305.182 375.829 305.182ZM375.829 300.322C378.097 300.322 379.393 299.134 379.393 296.866C379.393 294.598 378.133 293.266 375.865 293.266C373.597 293.266 372.337 294.526 372.337 296.794C372.337 299.062 373.561 300.322 375.829 300.322Z" fill="#E7F2FE"/>
</g>
</g>
<path d="M326 338V246H318V338H326Z" fill="#063C7A" mask="url(#path-18-inside-4_761_7950)"/>
<g clip-path="url(#clip6_761_7950)">
<g filter="url(#filter5_d_761_7950)">
<path d="M483.973 305.182C476.773 305.182 473.029 301.798 473.029 296.758H479.365C479.365 298.63 480.661 300.214 483.217 300.214C485.737 300.214 487.033 298.63 487.033 296.542C487.033 294.418 485.701 292.834 483.253 292.834C480.841 292.834 480.193 294.166 479.797 294.634L474.109 293.842L475.153 279.982H492.289V286.102H480.517L480.229 289.846C480.229 289.846 482.173 288.226 485.521 288.226C490.777 288.226 494.125 291.394 494.125 296.65C494.125 301.366 490.201 305.182 483.973 305.182Z" fill="#E7F2FE"/>
</g>
</g>
<path d="M434 338V246H426V338H434Z" fill="#063C7A" mask="url(#path-21-inside-5_761_7950)"/>
</g>
<path d="M214 338C212.895 338 212 338.895 212 340C212 341.105 212.895 342 214 342L214 338ZM214 342L538 342L538 338L214 338L214 342Z" fill="#063C7A"/>
<g clip-path="url(#clip7_761_7950)">
<g filter="url(#filter6_d_761_7950)">
<path d="M267.973 401.182C260.773 401.182 257.029 397.798 257.029 392.758H263.365C263.365 394.63 264.661 396.214 267.217 396.214C269.737 396.214 271.033 394.63 271.033 392.542C271.033 390.418 269.701 388.834 267.253 388.834C264.841 388.834 264.193 390.166 263.797 390.634L258.109 389.842L259.153 375.982H276.289V382.102H264.517L264.229 385.846C264.229 385.846 266.173 384.226 269.521 384.226C274.777 384.226 278.125 387.394 278.125 392.65C278.125 397.366 274.201 401.182 267.973 401.182Z" fill="#E7F2FE"/>
</g>
</g>
<path d="M214 342H322H214ZM322 434H214H322ZM214 434V342V434ZM326 342V434H318V342H326Z" fill="#063C7A" mask="url(#path-25-outside-6_761_7950)"/>
<g clip-path="url(#clip8_761_7950)">
<g filter="url(#filter7_d_761_7950)">
<path d="M375.649 401.182C367.441 401.182 365.101 396.034 365.101 388.366C365.101 380.698 367.441 375.55 375.649 375.55C383.857 375.55 386.161 380.698 386.161 388.366C386.161 396.034 383.857 401.182 375.649 401.182ZM375.649 396.322C378.169 396.322 379.069 394.486 379.069 390.13V386.566C379.069 382.21 378.169 380.41 375.649 380.41C373.129 380.41 372.193 382.21 372.193 386.566V390.13C372.193 394.486 373.129 396.322 375.649 396.322Z" fill="#E7F2FE"/>
</g>
</g>
<path d="M426 342V434H434V342H426Z" fill="#063C7A" mask="url(#path-28-outside-7_761_7950)"/>
<g clip-path="url(#clip9_761_7950)">
<g filter="url(#filter8_d_761_7950)">
<path d="M483.973 401.182C476.773 401.182 473.029 397.798 473.029 392.758H479.365C479.365 394.63 480.661 396.214 483.217 396.214C485.737 396.214 487.033 394.63 487.033 392.542C487.033 390.418 485.701 388.834 483.253 388.834C480.841 388.834 480.193 390.166 479.797 390.634L474.109 389.842L475.153 375.982H492.289V382.102H480.517L480.229 385.846C480.229 385.846 482.173 384.226 485.521 384.226C490.777 384.226 494.125 387.394 494.125 392.65C494.125 397.366 490.201 401.182 483.973 401.182Z" fill="#E7F2FE"/>
</g>
</g>
<rect x="212" y="148" width="328" height="288" rx="11" stroke="#0855AB" stroke-width="4"/>
<path d="M642.216 298V287.024H644.2L648.888 293.504C649.048 293.712 649.336 294.16 649.416 294.352H649.496V287.024H651.496V298H649.528L644.824 291.472C644.648 291.216 644.376 290.768 644.296 290.608H644.216V298H642.216ZM653.935 298V287.024H662.495V288.8H656.015V291.504H661.791V293.28H656.015V296.224H662.591V298H653.935ZM663.645 298L667.597 292.24L664.013 287.024H666.557L668.989 290.688H669.069L671.501 287.024H673.885L670.301 292.224L674.269 298H671.741L668.925 293.76H668.829L666.045 298H663.645ZM678.029 298V288.816H674.525V287.024H683.629V288.816H680.109V298H678.029Z" fill="white"/>
<path d="M702 284.08L708.52 290.6C709.29 291.37 709.29 292.63 708.52 293.4L702 299.92" stroke="white" stroke-width="1.5" stroke-miterlimit="10" stroke-linecap="round" stroke-linejoin="round"/>
<rect x="603" y="272" width="129" height="40" rx="7" stroke="url(#paint1_linear_761_7950)" stroke-width="2"/>
<defs>
<filter id="filter0_d_761_7950" x="210.119" y="138.119" width="131.287" height="131.287" filterUnits="userSpaceOnUse" color-interpolation-filters="sRGB">
<feFlood flood-opacity="0" result="BackgroundImageFix"/>
<feColorMatrix in="SourceAlpha" type="matrix" values="0 0 0 0 0 0 0 0 0 0 0 0 0 0 0 0 0 0 127 0" result="hardAlpha"/>
<feOffset dx="7.7625" dy="7.7625"/>
<feGaussianBlur stdDeviation="5.82187"/>
<feComposite in2="hardAlpha" operator="out"/>
<feColorMatrix type="matrix" values="0 0 0 0 0.00392157 0 0 0 0 0.0470588 0 0 0 0 0.0941176 0 0 0 0.25 0"/>
<feBlend mode="normal" in2="BackgroundImageFix" result="effect1_dropShadow_761_7950"/>
<feBlend mode="normal" in="SourceGraphic" in2="effect1_dropShadow_761_7950" result="shape"/>
</filter>
<filter id="filter1_d_761_7950" x="318.119" y="138.119" width="131.287" height="131.287" filterUnits="userSpaceOnUse" color-interpolation-filters="sRGB">
<feFlood flood-opacity="0" result="BackgroundImageFix"/>
<feColorMatrix in="SourceAlpha" type="matrix" values="0 0 0 0 0 0 0 0 0 0 0 0 0 0 0 0 0 0 127 0" result="hardAlpha"/>
<feOffset dx="7.7625" dy="7.7625"/>
<feGaussianBlur stdDeviation="5.82187"/>
<feComposite in2="hardAlpha" operator="out"/>
<feColorMatrix type="matrix" values="0 0 0 0 0.00392157 0 0 0 0 0.0470588 0 0 0 0 0.0941176 0 0 0 0.25 0"/>
<feBlend mode="normal" in2="BackgroundImageFix" result="effect1_dropShadow_761_7950"/>
<feBlend mode="normal" in="SourceGraphic" in2="effect1_dropShadow_761_7950" result="shape"/>
</filter>
<filter id="filter2_d_761_7950" x="426.119" y="138.119" width="131.287" height="131.287" filterUnits="userSpaceOnUse" color-interpolation-filters="sRGB">
<feFlood flood-opacity="0" result="BackgroundImageFix"/>
<feColorMatrix in="SourceAlpha" type="matrix" values="0 0 0 0 0 0 0 0 0 0 0 0 0 0 0 0 0 0 127 0" result="hardAlpha"/>
<feOffset dx="7.7625" dy="7.7625"/>
<feGaussianBlur stdDeviation="5.82187"/>
<feComposite in2="hardAlpha" operator="out"/>
<feColorMatrix type="matrix" values="0 0 0 0 0.00392157 0 0 0 0 0.0470588 0 0 0 0 0.0941176 0 0 0 0.25 0"/>
<feBlend mode="normal" in2="BackgroundImageFix" result="effect1_dropShadow_761_7950"/>
<feBlend mode="normal" in="SourceGraphic" in2="effect1_dropShadow_761_7950" result="shape"/>
</filter>
<filter id="filter3_d_761_7950" x="210.119" y="234.119" width="131.287" height="131.287" filterUnits="userSpaceOnUse" color-interpolation-filters="sRGB">
<feFlood flood-opacity="0" result="BackgroundImageFix"/>
<feColorMatrix in="SourceAlpha" type="matrix" values="0 0 0 0 0 0 0 0 0 0 0 0 0 0 0 0 0 0 127 0" result="hardAlpha"/>
<feOffset dx="7.7625" dy="7.7625"/>
<feGaussianBlur stdDeviation="5.82187"/>
<feComposite in2="hardAlpha" operator="out"/>
<feColorMatrix type="matrix" values="0 0 0 0 0.00392157 0 0 0 0 0.0470588 0 0 0 0 0.0941176 0 0 0 0.25 0"/>
<feBlend mode="normal" in2="BackgroundImageFix" result="effect1_dropShadow_761_7950"/>
<feBlend mode="normal" in="SourceGraphic" in2="effect1_dropShadow_761_7950" result="shape"/>
</filter>
<filter id="filter4_d_761_7950" x="318.119" y="234.119" width="131.287" height="131.287" filterUnits="userSpaceOnUse" color-interpolation-filters="sRGB">
<feFlood flood-opacity="0" result="BackgroundImageFix"/>
<feColorMatrix in="SourceAlpha" type="matrix" values="0 0 0 0 0 0 0 0 0 0 0 0 0 0 0 0 0 0 127 0" result="hardAlpha"/>
<feOffset dx="7.7625" dy="7.7625"/>
<feGaussianBlur stdDeviation="5.82187"/>
<feComposite in2="hardAlpha" operator="out"/>
<feColorMatrix type="matrix" values="0 0 0 0 0.00392157 0 0 0 0 0.0470588 0 0 0 0 0.0941176 0 0 0 0.25 0"/>
<feBlend mode="normal" in2="BackgroundImageFix" result="effect1_dropShadow_761_7950"/>
<feBlend mode="normal" in="SourceGraphic" in2="effect1_dropShadow_761_7950" result="shape"/>
</filter>
<filter id="filter5_d_761_7950" x="426.119" y="234.119" width="131.287" height="131.287" filterUnits="userSpaceOnUse" color-interpolation-filters="sRGB">
<feFlood flood-opacity="0" result="BackgroundImageFix"/>
<feColorMatrix in="SourceAlpha" type="matrix" values="0 0 0 0 0 0 0 0 0 0 0 0 0 0 0 0 0 0 127 0" result="hardAlpha"/>
<feOffset dx="7.7625" dy="7.7625"/>
<feGaussianBlur stdDeviation="5.82187"/>
<feComposite in2="hardAlpha" operator="out"/>
<feColorMatrix type="matrix" values="0 0 0 0 0.00392157 0 0 0 0 0.0470588 0 0 0 0 0.0941176 0 0 0 0.25 0"/>
<feBlend mode="normal" in2="BackgroundImageFix" result="effect1_dropShadow_761_7950"/>
<feBlend mode="normal" in="SourceGraphic" in2="effect1_dropShadow_761_7950" result="shape"/>
</filter>
<filter id="filter6_d_761_7950" x="210.119" y="330.119" width="131.287" height="131.287" filterUnits="userSpaceOnUse" color-interpolation-filters="sRGB">
<feFlood flood-opacity="0" result="BackgroundImageFix"/>
<feColorMatrix in="SourceAlpha" type="matrix" values="0 0 0 0 0 0 0 0 0 0 0 0 0 0 0 0 0 0 127 0" result="hardAlpha"/>
<feOffset dx="7.7625" dy="7.7625"/>
<feGaussianBlur stdDeviation="5.82187"/>
<feComposite in2="hardAlpha" operator="out"/>
<feColorMatrix type="matrix" values="0 0 0 0 0.00392157 0 0 0 0 0.0470588 0 0 0 0 0.0941176 0 0 0 0.25 0"/>
<feBlend mode="normal" in2="BackgroundImageFix" result="effect1_dropShadow_761_7950"/>
<feBlend mode="normal" in="SourceGraphic" in2="effect1_dropShadow_761_7950" result="shape"/>
</filter>
<filter id="filter7_d_761_7950" x="318.119" y="330.119" width="131.287" height="131.287" filterUnits="userSpaceOnUse" color-interpolation-filters="sRGB">
<feFlood flood-opacity="0" result="BackgroundImageFix"/>
<feColorMatrix in="SourceAlpha" type="matrix" values="0 0 0 0 0 0 0 0 0 0 0 0 0 0 0 0 0 0 127 0" result="hardAlpha"/>
<feOffset dx="7.7625" dy="7.7625"/>
<feGaussianBlur stdDeviation="5.82187"/>
<feComposite in2="hardAlpha" operator="out"/>
<feColorMatrix type="matrix" values="0 0 0 0 0.00392157 0 0 0 0 0.0470588 0 0 0 0 0.0941176 0 0 0 0.25 0"/>
<feBlend mode="normal" in2="BackgroundImageFix" result="effect1_dropShadow_761_7950"/>
<feBlend mode="normal" in="SourceGraphic" in2="effect1_dropShadow_761_7950" result="shape"/>
</filter>
<filter id="filter8_d_761_7950" x="426.119" y="330.119" width="131.287" height="131.287" filterUnits="userSpaceOnUse" color-interpolation-filters="sRGB">
<feFlood flood-opacity="0" result="BackgroundImageFix"/>
<feColorMatrix in="SourceAlpha" type="matrix" values="0 0 0 0 0 0 0 0 0 0 0 0 0 0 0 0 0 0 127 0" result="hardAlpha"/>
<feOffset dx="7.7625" dy="7.7625"/>
<feGaussianBlur stdDeviation="5.82187"/>
<feComposite in2="hardAlpha" operator="out"/>
<feColorMatrix type="matrix" values="0 0 0 0 0.00392157 0 0 0 0 0.0470588 0 0 0 0 0.0941176 0 0 0 0.25 0"/>
<feBlend mode="normal" in2="BackgroundImageFix" result="effect1_dropShadow_761_7950"/>
<feBlend mode="normal" in="SourceGraphic" in2="effect1_dropShadow_761_7950" result="shape"/>
</filter>
<linearGradient id="paint0_linear_761_7950" x1="28.8978" y1="279.717" x2="152.172" y2="297.788" gradientUnits="userSpaceOnUse">
<stop stop-color="#032449"/>
<stop offset="1" stop-color="#0B77F0"/>
</linearGradient>
<linearGradient id="paint1_linear_761_7950" x1="611.898" y1="279.717" x2="735.172" y2="297.788" gradientUnits="userSpaceOnUse">
<stop stop-color="#032449"/>
<stop offset="1" stop-color="#0B77F0"/>
</linearGradient>
<clipPath id="clip0_761_7950">
<path d="M214 168C214 158.059 222.059 150 232 150H322V242H214V168Z" fill="white"/>
</clipPath>
<clipPath id="clip1_761_7950">
<path d="M322 150H430V242H322V150Z" fill="white"/>
</clipPath>
<clipPath id="clip2_761_7950">
<path d="M430 150H520C529.941 150 538 158.059 538 168V242H430V150Z" fill="white"/>
</clipPath>
<clipPath id="clip3_761_7950">
<rect width="324" height="92" fill="white" transform="translate(214 246)"/>
</clipPath>
<clipPath id="clip4_761_7950">
<rect width="108" height="92" fill="white" transform="translate(214 246)"/>
</clipPath>
<clipPath id="clip5_761_7950">
<path d="M322 246H430V338H322V246Z" fill="white"/>
</clipPath>
<clipPath id="clip6_761_7950">
<path d="M430 246H538V338H430V246Z" fill="white"/>
</clipPath>
<clipPath id="clip7_761_7950">
<path d="M214 342H322V434H232C222.059 434 214 425.941 214 416V342Z" fill="white"/>
</clipPath>
<clipPath id="clip8_761_7950">
<path d="M322 342H430V434H322V342Z" fill="white"/>
</clipPath>
<clipPath id="clip9_761_7950">
<path d="M430 342H538V416C538 425.941 529.941 434 520 434H430V342Z" fill="white"/>
</clipPath>
</defs>
</svg>
